<svg width="104" height="104" viewBox="0 0 104 104" fill="none" xmlns="http://www.w3.org/2000/svg">
<g clip-path="url(#clip0_31663_3401)">
<path d="M94.226 82.7411C84.7852 79.3509 69.3973 77.1467 52 77.1467C34.6027 77.1467 19.2148 79.3509 9.77398 82.7411H0V90.5733C0 97.9915 23.2839 104 52 104C80.7161 104 104 97.9915 104 90.5733V82.7411H94.226Z" fill="#013840"/>
<path d="M52 96.1676C80.7188 96.1676 104 90.1563 104 82.741C104 75.3257 80.7188 69.3145 52 69.3145C23.2812 69.3145 0 75.3257 0 82.741C0 90.1563 23.2812 96.1676 52 96.1676Z" fill="#04606E"/>
<path d="M51.4652 84.0278C71.0051 84.0278 86.8453 80.6816 86.8453 76.5537C86.8453 72.4259 71.0051 69.0796 51.4652 69.0796C31.9252 69.0796 16.085 72.4259 16.085 76.5537C16.085 80.6816 31.9252 84.0278 51.4652 84.0278Z" fill="url(#paint0_linear_31663_3401)"/>
<path d="M51.4655 0C31.9175 0 16.0752 3.34545 16.0752 7.47413V76.5538C16.0752 80.6825 31.9175 84.028 51.4554 84.028C70.9932 84.028 86.8356 80.6825 86.8356 76.5538V7.47413C86.8356 3.34545 70.9932 0 51.4554 0H51.4655Z" fill="url(#paint1_linear_31663_3401)"/>
<path d="M51.4655 0C31.9175 0 16.0752 3.34545 16.0752 7.47413V76.5538C16.0752 80.6825 31.9175 84.028 51.4554 84.028C70.9932 84.028 86.8356 80.6825 86.8356 76.5538V7.47413C86.8356 3.34545 70.9932 0 51.4554 0H51.4655Z" fill="url(#paint2_linear_31663_3401)"/>
<path d="M24.4019 67.1599L33.7099 35.1279H27.8859V39.3919H23.2059V30.1359H39.0139V35.4399L30.0179 67.1599H24.4019ZM37.7695 67.1599V61.8559H43.0735V67.1599H37.7695ZM62.81 30.1359V35.1279H52.306V45.1119C52.7913 44.6266 53.4153 44.2279 54.178 43.9159C54.9407 43.5692 55.79 43.3959 56.726 43.3959C58.5287 43.3959 59.9847 43.9506 61.094 45.0599C62.238 46.1346 62.81 47.7639 62.81 49.9479V59.5159C62.81 60.7639 62.5847 61.8732 62.134 62.8439C61.718 63.8146 61.146 64.6466 60.418 65.3399C59.69 66.0332 58.8407 66.5706 57.87 66.9519C56.934 67.2986 55.946 67.4719 54.906 67.4719C53.866 67.4719 52.8607 67.2986 51.89 66.9519C50.954 66.5706 50.122 66.0332 49.394 65.3399C48.666 64.6466 48.0767 63.8146 47.626 62.8439C47.21 61.8732 47.002 60.7639 47.002 59.5159V57.9559H52.306V59.3079C52.306 60.2092 52.5487 60.9199 53.034 61.4399C53.554 61.9252 54.2127 62.1679 55.01 62.1679C55.8073 62.1679 56.414 61.9252 56.83 61.4399C57.2807 60.9546 57.506 60.2786 57.506 59.4119V50.7279C57.506 49.9999 57.2633 49.3759 56.778 48.8559C56.3273 48.3359 55.738 48.0759 55.01 48.0759C54.5593 48.0759 54.178 48.1626 53.866 48.3359C53.554 48.4746 53.294 48.6479 53.086 48.8559C52.878 49.0639 52.722 49.2892 52.618 49.5319C52.4447 49.8439 52.3407 50.0346 52.306 50.1039H47.626V30.1359H62.81ZM69.4696 38.2999C69.8163 38.2999 70.111 38.1786 70.3536 37.9359C70.631 37.6586 70.7696 37.3292 70.7696 36.9479V34.2959C70.7696 33.9146 70.631 33.6026 70.3536 33.3599C70.111 33.0826 69.8163 32.9439 69.4696 32.9439C69.123 32.9439 68.811 33.0826 68.5336 33.3599C68.291 33.6026 68.1696 33.9146 68.1696 34.2959V36.9479C68.1696 37.3292 68.291 37.6586 68.5336 37.9359C68.811 38.1786 69.123 38.2999 69.4696 38.2999ZM69.4696 41.4199C68.1176 41.4199 67.043 41.0559 66.2456 40.3279C65.4483 39.5999 65.0496 38.6466 65.0496 37.4679V34.0879C65.0496 32.7706 65.4483 31.7306 66.2456 30.9679C67.043 30.2052 68.1176 29.8239 69.4696 29.8239C70.8216 29.8239 71.8963 30.2052 72.6936 30.9679C73.491 31.7306 73.8896 32.7706 73.8896 34.0879V37.4679C73.8896 38.6466 73.491 39.5999 72.6936 40.3279C71.8963 41.0559 70.8216 41.4199 69.4696 41.4199ZM76.6976 62.9999C76.6976 63.3812 76.819 63.7106 77.0616 63.9879C77.339 64.2306 77.651 64.3519 77.9976 64.3519C78.3443 64.3519 78.639 64.2306 78.8816 63.9879C79.159 63.7106 79.2976 63.3812 79.2976 62.9999V60.3479C79.2976 59.9666 79.159 59.6546 78.8816 59.4119C78.639 59.1346 78.3443 58.9959 77.9976 58.9959C77.651 58.9959 77.339 59.1346 77.0616 59.4119C76.819 59.6546 76.6976 59.9666 76.6976 60.3479V62.9999ZM77.9976 67.4719C76.6456 67.4719 75.571 67.1079 74.7736 66.3799C73.9763 65.6519 73.5776 64.6986 73.5776 63.5199V60.1399C73.5776 58.8226 73.9763 57.7826 74.7736 57.0199C75.571 56.2572 76.6456 55.8759 77.9976 55.8759C79.3496 55.8759 80.4243 56.2572 81.2216 57.0199C82.019 57.7826 82.4176 58.8226 82.4176 60.1399V63.5199C82.4176 64.6986 82.019 65.6519 81.2216 66.3799C80.4243 67.1079 79.3496 67.4719 77.9976 67.4719ZM65.6736 67.1599L78.3616 30.1359H81.7936L69.1056 67.1599H65.6736Z" fill="white"/>
</g>
<defs>
<linearGradient id="paint0_linear_31663_3401" x1="16.085" y1="76.5537" x2="86.8453" y2="76.5537" gradientUnits="userSpaceOnUse">
<stop stop-color="#41D193"/>
<stop offset="1" stop-color="#216B4B"/>
</linearGradient>
<linearGradient id="paint1_linear_31663_3401" x1="51.4655" y1="-2.52867" x2="51.4655" y2="82.6517" gradientUnits="userSpaceOnUse">
<stop stop-color="#1FD47C" stop-opacity="0"/>
<stop offset="0.5" stop-color="#35F898" stop-opacity="0.5"/>
<stop offset="1" stop-color="#1FD47C" stop-opacity="0.7"/>
</linearGradient>
<linearGradient id="paint2_linear_31663_3401" x1="51.4655" y1="-2.52867" x2="51.4655" y2="82.6517" gradientUnits="userSpaceOnUse">
<stop stop-color="#35F898" stop-opacity="0"/>
<stop offset="1" stop-color="#35F898" stop-opacity="0.5"/>
</linearGradient>
<clipPath id="clip0_31663_3401">
<rect width="104" height="104" fill="white"/>
</clipPath>
</defs>
</svg>
