<svg width="24" height="24" viewBox="0 0 24 24" fill="none" xmlns="http://www.w3.org/2000/svg">
<path d="M2 11.6C2 8.23969 2 6.55953 2.65396 5.27606C3.2292 4.14708 4.14708 3.2292 5.27606 2.65396C6.55953 2 8.23969 2 11.6 2H12.4C15.7603 2 17.4405 2 18.7239 2.65396C19.8529 3.2292 20.7708 4.14708 21.346 5.27606C22 6.55953 22 8.23969 22 11.6V12.4C22 15.7603 22 17.4405 21.346 18.7239C20.7708 19.8529 19.8529 20.7708 18.7239 21.346C17.4405 22 15.7603 22 12.4 22H11.6C8.23969 22 6.55953 22 5.27606 21.346C4.14708 20.7708 3.2292 19.8529 2.65396 18.7239C2 17.4405 2 15.7603 2 12.4V11.6Z" fill="#0052FF"/>
<path d="M11.9904 17.5C15.0333 17.5 17.5 15.0376 17.5 12C17.5 8.96243 15.0333 6.5 11.9904 6.5C9.10352 6.5 6.73521 8.71645 6.5 11.5377H13.7824V12.4623H6.5C6.73521 15.2835 9.10352 17.5 11.9904 17.5Z" fill="white"/>
</svg>
