<svg width="24" height="24" viewBox="0 0 24 24" fill="none" xmlns="http://www.w3.org/2000/svg">
<path fill-rule="evenodd" clip-rule="evenodd" d="M18.5093 13.2707L12.0001 21.7655V16.9963L18.5093 13.2707Z" fill="#C8B2F5"/>
<path fill-rule="evenodd" clip-rule="evenodd" d="M11.9248 21.9876C12.0199 22.0198 12.125 21.9879 12.1861 21.9082L18.6953 13.4133C18.7632 13.3247 18.7592 13.2006 18.6857 13.1165C18.6123 13.0325 18.4897 13.0119 18.3928 13.0674L11.8836 16.7929C11.8107 16.8347 11.7657 16.9123 11.7657 16.9963V21.7656C11.7657 21.866 11.8297 21.9553 11.9248 21.9876ZM12.2344 21.0744V17.1322L17.6148 14.0528L12.2344 21.0744Z" fill="#3441C0"/>
<path fill-rule="evenodd" clip-rule="evenodd" d="M5.49152 13.2707L12.0007 21.7655V16.9963L5.49152 13.2707Z" fill="#EECBC0"/>
<path fill-rule="evenodd" clip-rule="evenodd" d="M12.0757 21.9876C11.9805 22.0198 11.8754 21.9879 11.8144 21.9082L5.30515 13.4133C5.23726 13.3247 5.24127 13.2006 5.31474 13.1165C5.3882 13.0325 5.51074 13.0119 5.60761 13.0674L12.1168 16.7929C12.1898 16.8347 12.2348 16.9123 12.2348 16.9963V21.7656C12.2348 21.866 12.1708 21.9553 12.0757 21.9876ZM11.766 21.0744V17.1322L6.38568 14.0528L11.766 21.0744Z" fill="#3441C0"/>
<path fill-rule="evenodd" clip-rule="evenodd" d="M5.49008 12.2863L12.0005 9.4379V15.9314L5.49008 12.2863Z" fill="#87A9F0"/>
<path fill-rule="evenodd" clip-rule="evenodd" d="M12.1284 9.24169C12.0622 9.19839 11.9787 9.19141 11.9062 9.22311L5.39577 12.0716C5.31427 12.1072 5.25998 12.1859 5.25563 12.2748C5.25127 12.3637 5.2976 12.4473 5.37522 12.4908L11.8857 16.1358C11.9582 16.1765 12.0469 16.1756 12.1187 16.1335C12.1904 16.0914 12.2345 16.0145 12.2345 15.9313V9.43784C12.2345 9.35874 12.1946 9.28498 12.1284 9.24169ZM11.7658 9.7962V15.5315L6.01552 12.3121L11.7658 9.7962Z" fill="#3441C0"/>
<path fill-rule="evenodd" clip-rule="evenodd" d="M18.5106 12.2863L12.0002 9.4379V15.9314L18.5106 12.2863Z" fill="#CAB3F5"/>
<path fill-rule="evenodd" clip-rule="evenodd" d="M11.8719 9.24169C11.9381 9.19839 12.0216 9.19141 12.0941 9.22311L18.6045 12.0716C18.686 12.1072 18.7403 12.1859 18.7447 12.2748C18.749 12.3637 18.7027 12.4473 18.6251 12.4908L12.1146 16.1358C12.0421 16.1765 11.9534 16.1756 11.8816 16.1335C11.8099 16.0914 11.7658 16.0145 11.7658 15.9313V9.43784C11.7658 9.35874 11.8057 9.28498 11.8719 9.24169ZM12.2345 9.7962V15.5315L17.9848 12.3121L12.2345 9.7962Z" fill="#3441C0"/>
<path fill-rule="evenodd" clip-rule="evenodd" d="M5.49131 12.2861L12.0005 2.23441V9.4377L5.49131 12.2861Z" fill="#EECBC0"/>
<path fill-rule="evenodd" clip-rule="evenodd" d="M12.0666 2.00966C11.967 1.98022 11.8599 2.01985 11.8034 2.10703L5.29421 12.1587C5.23797 12.2456 5.24534 12.359 5.31234 12.4379C5.37933 12.5167 5.49011 12.5423 5.5849 12.5008L12.0941 9.65243C12.1794 9.61511 12.2345 9.53083 12.2345 9.43772V2.23442C12.2345 2.13056 12.1662 2.03909 12.0666 2.00966ZM11.7658 3.02754V9.28445L6.11176 11.7586L11.7658 3.02754Z" fill="#3441C0"/>
<path fill-rule="evenodd" clip-rule="evenodd" d="M18.5094 12.2861L12.0002 2.23441V9.4377L18.5094 12.2861Z" fill="#B8FBF6"/>
<path fill-rule="evenodd" clip-rule="evenodd" d="M11.9337 2.00966C12.0333 1.98022 12.1404 2.01985 12.1969 2.10703L18.7061 12.1587C18.7623 12.2456 18.755 12.359 18.688 12.4379C18.621 12.5167 18.5102 12.5423 18.4154 12.5008L11.9062 9.65243C11.8209 9.61511 11.7658 9.53083 11.7658 9.43772V2.23442C11.7658 2.13056 11.8341 2.03909 11.9337 2.00966ZM12.2345 3.02754V9.28445L17.8885 11.7586L12.2345 3.02754Z" fill="#3441C0"/>
</svg>
