<svg width="16" height="16" viewBox="0 0 16 16" fill="none" xmlns="http://www.w3.org/2000/svg">
<path fill-rule="evenodd" clip-rule="evenodd" d="M8.53037 1.46967C8.23748 1.17678 7.7626 1.17678 7.46971 1.46967L0.46967 8.46971C0.176777 8.7626 0.176777 9.23748 0.46967 9.53037C0.762563 9.82326 1.23744 9.82326 1.53033 9.53037L2.25004 8.81066V13.0001C2.25004 13.9666 3.03354 14.7501 4.00004 14.7501H12C12.9665 14.7501 13.75 13.9666 13.75 13.0001V8.81066L14.4698 9.53037C14.7626 9.82326 15.2375 9.82326 15.5304 9.53037C15.8233 9.23748 15.8233 8.7626 15.5304 8.46971L8.53037 1.46967ZM12.25 7.31066L8.00004 3.06066L3.75004 7.31066V13.0001C3.75004 13.1382 3.86197 13.2501 4.00004 13.2501H12C12.1381 13.2501 12.25 13.1382 12.25 13.0001V7.31066Z" fill="white"/>
</svg>
