<svg width="128" height="96" viewBox="0 0 128 96" fill="none" xmlns="http://www.w3.org/2000/svg">
<g clip-path="url(#clip0_28770_15035)">
<path fill-rule="evenodd" clip-rule="evenodd" d="M107.139 59.1728C107.108 59.3345 107.023 59.4816 106.896 59.587C106.167 60.9387 105.686 62.4084 105.471 63.9272C105.208 65.8057 105.142 67.7061 105.277 69.5973L86.2627 67.4063C86.2627 67.4063 87.7615 64.3342 88.074 62.303C88.3865 60.2719 88.0576 56.4132 88.0576 56.4132H88.0595C88.0576 56.375 88.0595 56.3387 88.0649 56.3005C88.2647 55.0215 92.6958 54.6273 97.9626 55.4212C103.229 56.2151 107.337 57.8938 107.139 59.1728Z" fill="#0087B0" stroke="black" stroke-width="0.6" stroke-linecap="round" stroke-linejoin="round"/>
<g style="mix-blend-mode:multiply" opacity="0.4">
<path fill-rule="evenodd" clip-rule="evenodd" d="M88.074 62.3031C88.3865 60.272 88.0576 56.4132 88.0576 56.4132H88.0595C88.0576 56.3751 88.0595 56.3387 88.0649 56.3006C88.1503 55.7555 89.0042 55.3722 90.3631 55.1724C90.9717 56.0026 91.3151 56.9964 91.3478 58.0247C91.4041 61.2076 90.5484 67.5353 90.5484 67.5353L87.5217 67.5517L86.2627 67.4063C86.2627 67.4063 87.7615 64.3342 88.074 62.3031Z" fill="#0087B0"/>
</g>
<path fill-rule="evenodd" clip-rule="evenodd" d="M97.9816 59.553L98.6901 60.1016L97.8399 60.4395L97.1332 59.8764L97.9816 59.553ZM98.225 57.8779L100.665 59.7873L100.536 60.6757L97.6528 61.8148L95.9214 60.4541L95.7488 61.6422L97.482 62.9903L99.5149 62.1873L99.604 61.575L100.454 61.2371L100.236 62.7377L97.353 63.8786L94.9004 61.9656L95.3291 59.017L97.7818 60.9283L99.8274 60.1271H99.8147L98.0961 58.7663L96.5373 59.3822L95.8179 58.819L98.225 57.8779Z" fill="#CAFEFF"/>
<path fill-rule="evenodd" clip-rule="evenodd" d="M96.2451 64.8429C87.2086 63.464 79.6074 64.1471 79.2658 66.3689C78.9243 68.5908 85.9732 71.5085 95.0098 72.8874C104.046 74.2663 111.649 73.5851 111.989 71.3632C112.329 69.1413 105.282 66.2218 96.2451 64.8429Z" fill="#003E60" stroke="black" stroke-width="0.6" stroke-linecap="round" stroke-linejoin="round"/>
<path fill-rule="evenodd" clip-rule="evenodd" d="M96.0418 66.2435C90.1628 65.3496 85.2176 65.7911 84.9942 67.2318C84.7707 68.6725 89.3598 70.5637 95.2388 71.4575C101.118 72.3514 106.063 71.9081 106.285 70.4692C106.506 69.0304 101.921 67.1373 96.0418 66.2435Z" fill="black" stroke="black" stroke-width="0.6" stroke-linecap="round" stroke-linejoin="round"/>
<path fill-rule="evenodd" clip-rule="evenodd" d="M98.5399 67.1225C90.1701 64.0758 80.9138 68.3924 77.8689 76.764C74.824 85.1356 79.1388 94.3901 87.5086 97.435C95.8783 100.482 105.135 96.1651 108.18 87.7935C108.181 87.7862 108.185 87.7789 108.187 87.7717C111.217 79.4056 106.901 70.1656 98.538 67.1225H98.5399Z" fill="#84D1D3" stroke="black" stroke-width="0.6" stroke-linecap="round" stroke-linejoin="round"/>
<path fill-rule="evenodd" clip-rule="evenodd" d="M98.3781 67.5805C103.943 69.5952 107.914 74.5513 108.668 80.4212C108.528 81.2842 108.307 82.1344 108.009 82.9556C105.304 90.417 96.9719 94.2449 89.4051 91.5034C81.8384 88.7619 77.896 80.4903 80.603 73.0289C80.7029 72.7509 80.8137 72.4802 80.93 72.2132C85.2103 67.1808 92.1648 65.3331 98.3781 67.5805Z" fill="#CAFEFF"/>
<path fill-rule="evenodd" clip-rule="evenodd" d="M89.6654 86.9708V92.5973H88.7624V86.969C83.7409 86.6492 84.4549 81.6223 84.4549 81.6223C84.4549 81.6223 86.7876 81.4951 89.1058 81.4951C91.424 81.4951 93.7549 81.6223 93.7549 81.6223C93.7549 81.6223 94.071 86.6892 89.6654 86.9708Z" fill="#C5F7F8" stroke="black" stroke-width="0.6" stroke-linecap="round" stroke-linejoin="round"/>
<path fill-rule="evenodd" clip-rule="evenodd" d="M85.5225 83.8263C85.5225 83.8263 87.2992 83.7627 89.0633 83.7627C90.8274 83.7627 92.6041 83.8263 92.6041 83.8263C92.6041 83.8263 91.9574 86.486 89.1941 86.486C85.7041 86.486 85.5225 83.8263 85.5225 83.8263Z" fill="#9CEE32" stroke="black" stroke-width="0.6" stroke-linecap="round" stroke-linejoin="round"/>
<path fill-rule="evenodd" clip-rule="evenodd" d="M89.1051 92.1357C90.6747 92.1357 91.9483 92.3756 91.9483 92.6699C91.9483 92.9642 90.6747 93.204 89.1051 93.204C87.5354 93.204 86.2637 92.9642 86.2637 92.6699C86.2637 92.3756 87.5372 92.1357 89.1051 92.1357Z" fill="#C5F7F8" stroke="black" stroke-width="0.6" stroke-linecap="round" stroke-linejoin="round"/>
<path fill-rule="evenodd" clip-rule="evenodd" d="M89.8647 85.9664C89.8647 85.9664 85.2429 85.8737 84.2074 88.6025C83.1718 91.3312 88.5748 90.1867 89.6303 89.5817C90.6859 88.9767 91.5216 85.901 89.8647 85.9664Z" fill="#C5F7F8" stroke="black" stroke-width="0.6" stroke-linecap="round" stroke-linejoin="round"/>
<path fill-rule="evenodd" clip-rule="evenodd" d="M96.9281 76.7659C97.8528 77.4745 98.5523 74.7584 98.0654 73.632C97.5785 72.5057 92.0592 68.8104 91.5669 69.6497C91.0746 70.4891 90.1571 72.5529 91.0764 73.1124C92.319 73.87 95.066 75.3398 96.9281 76.7659Z" fill="black" stroke="black" stroke-width="0.6" stroke-linecap="round" stroke-linejoin="round"/>
<path fill-rule="evenodd" clip-rule="evenodd" d="M101.065 78.4427C99.8973 78.3955 101.109 75.8466 102.21 75.2907C103.311 74.7348 109.946 75.4287 109.782 76.3953C109.619 77.3618 108.997 79.5455 107.929 79.3874C106.485 79.1712 103.42 78.539 101.065 78.4427Z" fill="black" stroke="black" stroke-width="0.6" stroke-linecap="round" stroke-linejoin="round"/>
<path d="M102.25 82.2792C103.023 82.2792 103.649 81.6529 103.649 80.8803C103.649 80.1078 103.023 79.4814 102.25 79.4814C101.478 79.4814 100.852 80.1078 100.852 80.8803C100.852 81.6529 101.478 82.2792 102.25 82.2792Z" fill="black" stroke="black" stroke-width="0.6" stroke-linecap="round" stroke-linejoin="round"/>
<path d="M92.0162 78.572C92.7878 78.572 93.4133 77.9465 93.4133 77.1749C93.4133 76.4033 92.7878 75.7778 92.0162 75.7778C91.2446 75.7778 90.6191 76.4033 90.6191 77.1749C90.6191 77.9465 91.2446 78.572 92.0162 78.572Z" fill="black" stroke="black" stroke-width="0.6" stroke-linecap="round" stroke-linejoin="round"/>
<path d="M100.357 82.8318C100.357 82.8318 97.1992 83.6421 95.5986 80.917" stroke="black" stroke-width="0.6" stroke-linecap="round" stroke-linejoin="round"/>
<path fill-rule="evenodd" clip-rule="evenodd" d="M72.5236 103.728H46.5441C40.6378 103.737 34.8551 102.044 29.8881 98.8486L31.4433 93.0805C31.4433 93.0805 28.2967 94.5266 25.0774 95.0316C22.8319 92.857 20.9298 90.3553 19.4346 87.6102C22.3813 82.6578 30.3569 77.1367 35.3584 70.7781C35.3584 70.7781 34.4464 58.4696 33.8305 43.8811C33.5253 36.6759 35.2112 27.1907 40.3653 24.9016C49.36 20.9083 56.8705 30.9441 61.6703 40.0133C76.4823 67.9966 81.4638 82.1491 85.3244 100.954C81.3057 102.787 76.9401 103.734 72.5236 103.728Z" fill="#00BFBF" stroke="black" stroke-width="0.6" stroke-linecap="round" stroke-linejoin="round"/>
<g style="mix-blend-mode:multiply" opacity="0.6">
<path fill-rule="evenodd" clip-rule="evenodd" d="M37.0419 35.8583C34.5929 56.1151 46.2056 91.8668 46.2837 91.7142L30.6924 95.8619L31.4427 93.0804C29.7822 93.8126 28.0563 94.3867 26.2886 94.7991C26.116 92.0558 25.8235 86.9489 25.6055 80.6793C28.8556 77.609 32.5691 74.3243 35.3578 70.778C35.3578 70.778 34.4458 58.4696 33.8299 43.8811C33.5247 36.6759 35.2106 27.1906 40.3647 24.9015C41.6928 24.2947 43.1389 23.9877 44.5996 24.004C41.5492 25.0269 37.9975 27.9518 37.0419 35.8583Z" fill="#007D87"/>
</g>
<path fill-rule="evenodd" clip-rule="evenodd" d="M72.5236 103.728H46.5441C40.6378 103.737 34.8551 102.044 29.8881 98.8484L31.4433 93.0802C31.4433 93.0802 28.2967 94.5263 25.0774 95.0314C22.8319 92.8567 20.9298 90.3551 19.4346 87.61C22.3668 82.6848 30.2697 77.1946 35.2766 70.8795C39.8221 72.1077 54.1908 76.4043 59.4848 75.7848C59.4848 75.7848 71.637 71.857 72.5508 61.8921C79.36 76.8712 82.6174 87.7698 85.3244 100.954C81.3057 102.787 76.9401 103.734 72.5236 103.728Z" fill="#2A424E" stroke="black" stroke-width="0.6" stroke-linecap="round" stroke-linejoin="round"/>
<path fill-rule="evenodd" clip-rule="evenodd" d="M75.5669 68.8139L77.1493 79.2438L73.325 80.5174L79.789 82.7937L65.2223 103.728H63.3184C66.881 97.642 78.4228 82.5212 78.4228 82.5212L71.1395 80.7009L75.6014 78.5153L74.9419 67.3296C75.1545 67.8292 75.3616 68.3234 75.5669 68.8139Z" fill="black" stroke="black" stroke-width="0.6" stroke-linecap="round" stroke-linejoin="round"/>
<path fill-rule="evenodd" clip-rule="evenodd" d="M61.1761 103.728H59.8971C58.7217 102.344 57.4263 101.065 56.0256 99.9058C51.6454 96.3976 45.0997 92.8059 45.0997 92.8059L46.2842 85.9804L42.004 86.5254L33.8867 72.5365C33.9194 72.5001 33.9521 72.4602 33.9848 72.4238C35.5654 74.3332 40.2453 80.1904 42.7325 85.4336L47.8321 84.6142L45.374 91.6232C45.374 91.6232 58.0513 97.7929 61.1761 103.728Z" fill="black" stroke="black" stroke-width="0.6" stroke-linecap="round" stroke-linejoin="round"/>
<path fill-rule="evenodd" clip-rule="evenodd" d="M61.3063 100.362C57.9507 93.9922 54.1792 87.8498 50.0152 81.9744C44.7793 74.5984 38.061 71.8261 35.2305 70.9359C35.245 70.9177 35.2614 70.8995 35.2759 70.8795C39.8214 72.1077 54.1901 76.4043 59.4841 75.7848C59.4841 75.7848 71.6363 71.857 72.5501 61.8921C72.5501 61.8939 72.5501 61.8957 72.5519 61.8957C72.4138 63.6416 71.8815 68.6486 69.9558 75.3306C66.8183 86.2038 61.3063 100.362 61.3063 100.362Z" fill="white" stroke="black" stroke-width="0.6" stroke-linecap="round" stroke-linejoin="round"/>
<path d="M51.1094 83.1575L59.3029 75.9668L68.4993 79.4259" stroke="black" stroke-width="0.6" stroke-linecap="round" stroke-linejoin="round"/>
<path opacity="0.4" fill-rule="evenodd" clip-rule="evenodd" d="M53.2959 83.7043L61.0334 97.2663L67.6809 79.2441L68.7728 79.6075L61.3077 100.362L51.2012 83.6134L53.2959 83.7043Z" fill="#3C5866"/>
<path d="M59.2119 75.9668C59.2119 75.9668 61.5628 102.355 61.5791 106.187" stroke="black" stroke-width="0.6" stroke-linecap="round" stroke-linejoin="round"/>
<path d="M60.5781 76.6045C60.5781 76.6045 62.6837 88.8639 62.4893 97.4499" stroke="black" stroke-width="0.6" stroke-linecap="round" stroke-linejoin="round"/>
<path fill-rule="evenodd" clip-rule="evenodd" d="M60.125 78.2181C60.125 78.2181 64.1854 71.9539 66.8379 73.3165C69.4903 74.679 70.0444 81.1012 68.5202 81.6172C66.9959 82.1332 60.9153 81.1667 60.9153 81.1667L60.125 78.2181Z" fill="#2A424E" stroke="black" stroke-width="0.6" stroke-linecap="round" stroke-linejoin="round"/>
<path fill-rule="evenodd" clip-rule="evenodd" d="M61.4424 79.4824L65.1485 77.8037L61.4424 79.4824Z" fill="#2A424E"/>
<path d="M61.4424 79.4824L65.1485 77.8037" stroke="black" stroke-width="0.6" stroke-linecap="round" stroke-linejoin="round"/>
<path fill-rule="evenodd" clip-rule="evenodd" d="M59.0946 78.7522C59.0946 78.7522 53.0848 74.3121 51.0882 76.5267C49.0916 78.7413 50.8429 84.9618 52.4508 84.9055C54.0586 84.8492 59.3998 81.7952 59.3998 81.7952L59.0946 78.7522Z" fill="#2A424E" stroke="black" stroke-width="0.6" stroke-linecap="round" stroke-linejoin="round"/>
<path fill-rule="evenodd" clip-rule="evenodd" d="M58.3097 80.4034L54.2529 80.1382L58.3097 80.4034Z" fill="#2A424E"/>
<path d="M58.3097 80.4034L54.2529 80.1382" stroke="black" stroke-width="0.6" stroke-linecap="round" stroke-linejoin="round"/>
<path fill-rule="evenodd" clip-rule="evenodd" d="M59.435 77.173L59.8383 77.1004C60.7321 76.9369 61.5878 77.5291 61.7513 78.4212L62.1656 80.6848C62.3273 81.5787 61.735 82.4344 60.843 82.5979L60.4378 82.6705C59.544 82.834 58.6883 82.2418 58.5248 81.3498L58.1106 79.0843C57.9489 78.1904 58.5411 77.3347 59.435 77.1712V77.173Z" fill="#2A424E" stroke="black" stroke-width="0.6" stroke-linecap="round" stroke-linejoin="round"/>
<path d="M63.3372 65.7437C63.3372 65.7437 63.528 68.3198 58.8244 69.4625C54.0664 70.618 52.7129 68.5087 52.7129 68.5087" stroke="black" stroke-width="0.6" stroke-linecap="round" stroke-linejoin="round"/>
<path d="M52.3535 68.8447C52.3535 68.8447 52.7278 68.0526 53.3709 68.2797" stroke="black" stroke-width="0.6" stroke-linecap="round" stroke-linejoin="round"/>
<path fill-rule="evenodd" clip-rule="evenodd" d="M64.0572 52.2602C61.8317 51.399 59.33 52.4909 58.4471 54.7073C57.5896 56.9074 58.6796 59.3873 60.8815 60.243C60.8942 60.2484 60.9088 60.2539 60.9215 60.2593C63.147 61.1186 65.6487 60.0268 66.5334 57.8121C67.3891 55.6102 66.2972 53.1304 64.0935 52.2747C64.0808 52.2692 64.0681 52.2656 64.0572 52.2602Z" fill="white" stroke="black" stroke-width="0.6" stroke-linecap="round" stroke-linejoin="round"/>
<path fill-rule="evenodd" clip-rule="evenodd" d="M61.8274 56.7564C61.0662 56.4603 60.2087 56.8364 59.9071 57.5958C59.6128 58.3497 59.9871 59.2 60.7428 59.4943C60.7465 59.4943 60.7501 59.4979 60.7537 59.4979C61.5149 59.7922 62.3724 59.418 62.674 58.6586C62.9683 57.9046 62.5941 57.0544 61.8383 56.7601C61.8347 56.7601 61.8311 56.7564 61.8274 56.7564Z" fill="black" stroke="black" stroke-width="0.6" stroke-linecap="round" stroke-linejoin="round"/>
<path fill-rule="evenodd" clip-rule="evenodd" d="M68.2165 58.6526C68.2165 58.6526 64.1851 58.2674 62.5918 62.2806L68.2165 58.6526Z" fill="#00BFBF"/>
<path d="M68.2165 58.6526C68.2165 58.6526 64.1851 58.2674 62.5918 62.2806" stroke="black" stroke-width="0.6" stroke-linecap="round" stroke-linejoin="round"/>
<path fill-rule="evenodd" clip-rule="evenodd" d="M49.3963 56.1799C47.1635 55.3188 44.6564 56.4288 43.7934 58.6597C42.9305 60.8907 44.0423 63.3996 46.2733 64.2626C48.5024 65.1237 51.0077 64.0173 51.8725 61.7882C52.7373 59.5572 51.6309 57.0465 49.3999 56.1817C49.3999 56.1817 49.3963 56.1817 49.3945 56.1799H49.3963Z" fill="white" stroke="black" stroke-width="0.6" stroke-linecap="round" stroke-linejoin="round"/>
<path fill-rule="evenodd" clip-rule="evenodd" d="M48.404 60.1316C47.6391 59.8355 46.7798 60.2134 46.4837 60.9782C46.1875 61.7431 46.5654 62.6024 47.3303 62.8985C48.0951 63.1947 48.9544 62.8168 49.2506 62.0519C49.5467 61.2889 49.1688 60.4296 48.4058 60.1316H48.404Z" fill="black" stroke="black" stroke-width="0.6" stroke-linecap="round" stroke-linejoin="round"/>
<path fill-rule="evenodd" clip-rule="evenodd" d="M43.1143 64.6501C43.1143 64.6501 46.7859 62.1648 50.4503 65.2096L43.1143 64.6501Z" fill="#00BFBF"/>
<path d="M43.1143 64.6501C43.1143 64.6501 46.7859 62.1648 50.4503 65.2096" stroke="black" stroke-width="0.6" stroke-linecap="round" stroke-linejoin="round"/>
<path fill-rule="evenodd" clip-rule="evenodd" d="M50.2677 48.8244C50.2677 48.8244 41.8798 48.1376 41.4492 54.776C41.4492 54.776 46.6942 51.3842 51.3123 51.9764C51.3123 51.9764 51.9791 49.5765 50.2677 48.8244Z" fill="black" stroke="black" stroke-width="0.6" stroke-linecap="round" stroke-linejoin="round"/>
<path fill-rule="evenodd" clip-rule="evenodd" d="M56.0284 52.2978C56.0284 52.2978 61.277 46.9584 67.8554 50.5065C67.8554 50.5065 60.9609 51.6565 58.2721 54.7177C58.2721 54.7177 55.5343 53.7367 56.0284 52.2978Z" fill="black" stroke="black" stroke-width="0.6" stroke-linecap="round" stroke-linejoin="round"/>
<path fill-rule="evenodd" clip-rule="evenodd" d="M41.3692 78.8516V90.893H39.4562V78.8443C28.8391 78.1576 30.3506 67.4115 30.3506 67.4115C30.3506 67.4115 35.2813 67.1372 40.1829 67.1372C45.0844 67.1372 50.0151 67.4115 50.0151 67.4115C50.0151 67.4115 50.6855 78.2503 41.3692 78.8516Z" fill="#C5F7F8" stroke="black" stroke-width="0.6" stroke-linecap="round" stroke-linejoin="round"/>
<path fill-rule="evenodd" clip-rule="evenodd" d="M32.1406 72.1023C32.1406 72.1023 36.1647 71.9624 40.1634 71.9624C44.162 71.9624 48.1861 72.1023 48.1861 72.1023C48.1861 72.1023 46.72 77.9686 40.4613 77.9686C32.5494 77.9686 32.1406 72.1023 32.1406 72.1023Z" fill="#9CEE32" stroke="black" stroke-width="0.6" stroke-linecap="round" stroke-linejoin="round"/>
<g style="mix-blend-mode:multiply">
<path fill-rule="evenodd" clip-rule="evenodd" d="M40.8204 79.3351L41.369 80.4941V90.8932H39.456V79.0335C39.9011 79.1752 40.3571 79.2751 40.8204 79.3351ZM38.7911 78.7864C28.9043 77.7 30.3504 67.4117 30.3504 67.4117C30.3504 67.4117 31.802 67.33 33.9113 67.2573C33.7823 69.8662 33.9367 76.6808 38.7911 78.7864Z" fill="#88B5B6"/>
</g>
<path fill-rule="evenodd" clip-rule="evenodd" d="M30.3053 76.9371C31.3826 76.403 33.8243 79.1445 35.7591 83.0577C37.694 86.971 38.3898 90.5754 37.3125 91.1077C36.2351 91.6401 32.1202 89.3818 30.2598 85.434C27.8926 80.4144 29.2279 77.4712 30.3053 76.9371Z" fill="#5F8F90" stroke="black" stroke-width="0.6" stroke-linecap="round" stroke-linejoin="round"/>
<path fill-rule="evenodd" clip-rule="evenodd" d="M30.6852 77.6504C31.5191 77.238 33.4085 79.3564 34.9073 82.3831C36.4061 85.4098 36.9421 88.1948 36.1082 88.6072C35.2743 89.0196 33.3849 86.9013 31.8879 83.8746C30.3909 80.8479 29.8513 78.0628 30.6852 77.6504Z" fill="#5F8F90" stroke="black" stroke-width="0.6" stroke-linecap="round" stroke-linejoin="round"/>
<path fill-rule="evenodd" clip-rule="evenodd" d="M23.249 83.1575C23.249 83.1575 33.0159 76.0976 36.633 74.9658C40.2502 73.8339 47.1647 74.953 47.1029 78.4248C47.0412 81.8967 46.478 84.5364 40.9114 85.1613C39.7215 85.294 37.4524 86.0715 37.4524 86.0715L29.1662 93.9907L23.249 83.1575Z" fill="#00BFBF" stroke="black" stroke-width="0.6" stroke-linecap="round" stroke-linejoin="round"/>
<path fill-rule="evenodd" clip-rule="evenodd" d="M25.0918 81.8566C26.9249 80.5794 29.8299 78.6064 32.4206 77.0713C32.4169 79.2459 32.7548 82.3489 34.6297 83.0666C37.2894 84.0839 44.4965 83.8895 46.9327 80.6303C46.5331 82.983 45.225 84.6762 40.912 85.1613C39.7221 85.2939 37.453 86.0715 37.453 86.0715L31.3287 91.9232L31.0798 91.9868L25.0918 81.8566Z" fill="#007D87"/>
<path fill-rule="evenodd" clip-rule="evenodd" d="M30.5334 77.6963C30.5334 77.6963 29.238 79.2314 30.9657 83.4136C32.9805 88.297 35.9055 88.7112 35.9055 88.7112L27.3468 95.7202L20.9736 85.4338L30.5334 77.6963Z" fill="#C5F7F8" stroke="black" stroke-width="0.6" stroke-linecap="round" stroke-linejoin="round"/>
<path fill-rule="evenodd" clip-rule="evenodd" d="M30.1677 76.9678C30.1677 76.9678 28.3019 78.5502 30.0769 83.886C32.0099 89.6941 37.2694 91.1675 37.2694 91.1675C37.2694 91.1675 32.6985 95.455 27.2555 98.36C21.9797 101.174 15.314 96.8194 16.0571 90.6224C16.8001 84.4255 30.1677 76.9678 30.1677 76.9678Z" fill="#2A424E" stroke="black" stroke-width="0.6" stroke-linecap="round" stroke-linejoin="round"/>
<path fill-rule="evenodd" clip-rule="evenodd" d="M17.9685 91.8052C16.8422 91.8778 16.2862 91.351 16.0664 90.5534C16.8985 84.3692 30.168 76.9678 30.168 76.9678C30.168 76.9678 28.7473 78.1741 29.5667 82.0311C26.6108 85.4538 20.9026 91.6162 17.9685 91.8052Z" fill="#3C5866"/>
<path fill-rule="evenodd" clip-rule="evenodd" d="M40.1856 89.8936C43.5048 89.8936 46.1954 90.4004 46.1954 91.029C46.1954 91.6576 43.5048 92.1645 40.1856 92.1645C36.8664 92.1645 34.1758 91.6558 34.1758 91.029C34.1758 90.4022 36.8664 89.8936 40.1856 89.8936Z" fill="#C5F7F8" stroke="black" stroke-width="0.6" stroke-linecap="round" stroke-linejoin="round"/>
<g opacity="0.76">
<path d="M84.6744 35.8916C84.571 35.8916 84.4676 35.8703 84.3668 35.8306C83.9611 35.6608 83.7702 35.1941 83.9399 34.7884C85.1968 31.7839 87.9547 29.8163 88.0714 29.7341C88.432 29.4821 88.9279 29.567 89.1798 29.9276C89.4318 30.2856 89.3469 30.7815 88.9889 31.0361C88.9518 31.0626 86.4803 32.8367 85.409 35.4036C85.2817 35.7086 84.9847 35.8916 84.6744 35.8916Z" fill="#9CEE32"/>
</g>
<g opacity="0.76">
<path d="M88.4069 35.8145C88.1444 35.8145 87.8872 35.6846 87.736 35.4459C87.5 35.0747 87.6087 34.5841 87.98 34.3481L90.6663 32.6403C91.0375 32.4043 91.5281 32.513 91.7641 32.8843C92.0001 33.2555 91.8914 33.7461 91.5202 33.9821L88.8339 35.6899C88.7013 35.7748 88.5528 35.8145 88.4069 35.8145Z" fill="#F9DA72"/>
</g>
<g opacity="0.76">
<path d="M86.2578 48.2881C85.9608 48.2881 85.6744 48.121 85.5391 47.8346C84.603 45.867 83.1419 42.9341 83.126 42.9049C82.9297 42.5124 83.0888 42.0351 83.484 41.8389C83.8764 41.6426 84.3564 41.8017 84.55 42.1969C84.5659 42.226 86.0323 45.1722 86.9737 47.1531C87.162 47.5509 86.995 48.0255 86.5972 48.2138C86.4858 48.2668 86.3718 48.2907 86.2551 48.2907L86.2578 48.2881Z" fill="#EB4A30"/>
</g>
<g opacity="0.76">
<path d="M71.8796 41.7519C71.7497 41.7519 71.6171 41.7201 71.4977 41.6538C71.1132 41.4416 70.9727 40.959 71.1848 40.5718C72.8767 37.501 76.9578 37.1192 77.1302 37.1059C77.573 37.0688 77.9522 37.3923 77.9894 37.8325C78.0265 38.2701 77.703 38.6546 77.2654 38.6917C77.2309 38.6944 73.8552 39.0205 72.577 41.3409C72.4312 41.6034 72.1607 41.7519 71.8796 41.7519Z" fill="#EB4A30"/>
</g>
<g opacity="0.76">
<path d="M89.0473 38.5771C88.7052 38.5771 88.3896 38.3544 88.2862 38.0123C88.1589 37.5907 88.3976 37.1478 88.8166 37.0205C90.1133 36.6281 91.9775 36.8296 92.0571 36.8376C92.4946 36.8853 92.8075 37.2804 92.7598 37.7153C92.7121 38.1529 92.3143 38.4658 91.8821 38.418C91.4339 38.3677 90.0947 38.2961 89.278 38.5427C89.2011 38.5665 89.1242 38.5771 89.0473 38.5771Z" fill="#00BFBF"/>
</g>
<g opacity="0.76">
<path d="M88.8346 46.1639C88.4952 46.1639 88.1796 45.9438 88.0735 45.6017C87.811 44.7531 86.5249 43.1647 85.7771 42.3638C85.4774 42.043 85.4933 41.5391 85.8142 41.2395C86.1351 40.9398 86.6389 40.9557 86.9385 41.2766C87.1613 41.5152 89.1395 43.6579 89.5957 45.135C89.7256 45.554 89.4896 45.9995 89.068 46.1294C88.991 46.1533 88.9115 46.1639 88.8346 46.1639Z" fill="#F9DA72"/>
</g>
<g opacity="0.76">
<path d="M92.2952 42.9953C92.1016 42.9953 91.9054 42.9237 91.7543 42.7806C89.0521 40.2587 85.1884 40.3409 85.146 40.3435C84.7084 40.3595 84.3398 40.0121 84.3265 39.5745C84.3133 39.137 84.6554 38.7684 85.0929 38.7551C85.2759 38.7498 89.6434 38.6384 92.8388 41.6164C93.1597 41.9161 93.1783 42.4199 92.8786 42.7408C92.7222 42.9078 92.51 42.9927 92.2952 42.9927V42.9953Z" fill="#EB4A30"/>
</g>
<g opacity="0.76">
<path d="M83.6204 32.4117C83.5912 32.4117 83.5647 32.4117 83.5356 32.4064C83.098 32.3613 82.7824 31.9689 82.8275 31.5313C82.9734 30.1497 84.2383 27.8639 84.3815 27.6066C84.5963 27.2221 85.0816 27.0869 85.4634 27.3017C85.8453 27.5165 85.9832 28.0018 85.7684 28.3836C85.4236 29.0015 84.5035 30.7994 84.4107 31.6957C84.3682 32.1041 84.0235 32.4091 83.6204 32.4091V32.4117Z" fill="#EB4A30"/>
</g>
<g opacity="0.76">
<path d="M79.189 49.3756C78.8018 49.3756 78.4651 49.0945 78.4041 48.6994C77.8233 44.8993 80.0243 41.2531 80.1198 41.0993C80.3505 40.7254 80.8384 40.6087 81.215 40.8368C81.5889 41.0675 81.7056 41.5554 81.4775 41.9293C81.4563 41.9611 79.486 45.2441 79.9793 48.458C80.0455 48.8929 79.7459 49.2987 79.3136 49.365C79.2739 49.3703 79.2314 49.3756 79.1917 49.3756H79.189Z" fill="#EB4A30"/>
</g>
<g opacity="0.76">
<path d="M74.6823 45.2945C74.5975 45.2945 74.5126 45.2812 74.4278 45.252C74.0114 45.1115 73.786 44.6607 73.9266 44.2443C75.1199 40.6989 79.559 38.9858 79.7473 38.9142C80.161 38.7578 80.6171 38.9672 80.7736 39.3783C80.9274 39.7893 80.7205 40.2481 80.3121 40.4045C80.2618 40.4231 76.3848 41.932 75.4355 44.7535C75.3241 45.085 75.0138 45.2945 74.6823 45.2945Z" fill="#9CEE32"/>
</g>
<g opacity="0.76">
<path d="M78.4893 33.6955C78.1976 33.6955 77.9166 33.5337 77.776 33.2553C77.7548 33.2155 76.3652 30.4895 74.3393 29.9803C73.9123 29.8742 73.6551 29.442 73.7612 29.015C73.8672 28.5881 74.2995 28.3309 74.7264 28.437C77.471 29.1238 79.1311 32.4067 79.2 32.5473C79.3963 32.9397 79.2345 33.417 78.842 33.6133C78.728 33.669 78.6087 33.6955 78.4893 33.6955Z" fill="#F9DA72"/>
</g>
<g opacity="0.76">
<path d="M79.28 36.9809C79.1208 36.9809 78.9617 36.9331 78.8212 36.835C78.7867 36.8112 75.2094 34.337 71.3829 35.2678C70.9559 35.3712 70.5263 35.1087 70.4229 34.6818C70.3195 34.2548 70.582 33.8252 71.009 33.7218C75.5489 32.616 79.5716 35.4163 79.7414 35.5356C80.0994 35.7902 80.1842 36.2861 79.9296 36.6441C79.7758 36.8642 79.5292 36.9809 79.28 36.9809Z" fill="#00BFBF"/>
</g>
<g opacity="0.76">
<path d="M82.9654 50.0672C82.6578 50.0672 82.3661 49.8895 82.2361 49.5899C81.5838 48.0916 81.2735 46.4342 81.3398 44.8007C81.3584 44.3605 81.7244 44.0237 82.1672 44.037C82.6074 44.0556 82.9468 44.4242 82.9309 44.8644C82.8752 46.2592 83.1378 47.6726 83.6946 48.9535C83.8697 49.3565 83.684 49.8259 83.2836 50.0009C83.1802 50.046 83.0715 50.0672 82.968 50.0672H82.9654Z" fill="#F9DA72"/>
</g>
<g opacity="0.76">
<path d="M81.2229 36.1903C80.8517 36.1903 80.5176 35.9278 80.4433 35.5486C80.1224 33.923 79.966 30.1548 79.9607 29.9957C79.9421 29.5555 80.2842 29.1869 80.7244 29.1683C81.1673 29.1551 81.5332 29.4919 81.5518 29.9321C81.5518 29.9692 81.7082 33.7374 82.0079 35.241C82.0927 35.6732 81.8116 36.0896 81.382 36.1744C81.329 36.185 81.2786 36.1903 81.2282 36.1903H81.2229Z" fill="#9CEE32"/>
</g>
</g>
<defs>
<clipPath id="clip0_28770_15035">
<rect width="128" height="96" fill="white"/>
</clipPath>
</defs>
</svg>
