<svg width="128" height="96" viewBox="0 0 128 96" fill="none" xmlns="http://www.w3.org/2000/svg">
<g clip-path="url(#clip0_29826_6759)">
<path fill-rule="evenodd" clip-rule="evenodd" d="M111.949 74.2883L110.64 76.8448C110.573 76.9759 110.573 77.1332 110.64 77.2643L111.949 79.8183C112.065 80.0424 111.978 80.3189 111.754 80.4357C111.623 80.5048 111.467 80.5048 111.336 80.4357L108.796 79.1187C108.666 79.0508 108.509 79.0508 108.379 79.1187L105.839 80.4357C105.615 80.5513 105.34 80.4619 105.225 80.2366C105.158 80.1044 105.158 79.9482 105.225 79.8159L106.534 77.2619C106.602 77.1308 106.602 76.9735 106.534 76.8424L105.225 74.2859C105.111 74.0607 105.198 73.7854 105.422 73.6698C105.552 73.6018 105.707 73.6018 105.838 73.6698L108.378 74.9867C108.508 75.0546 108.665 75.0546 108.795 74.9867L111.335 73.6698C111.558 73.5542 111.833 73.6412 111.947 73.8652C112.015 73.9975 112.015 74.1536 111.947 74.2859L111.949 74.2883Z" fill="#72F9B5" stroke="black" stroke-width="0.6" stroke-linecap="round" stroke-linejoin="round"/>
<path fill-rule="evenodd" clip-rule="evenodd" d="M27.5231 35.1258L28.7429 38.9741C28.8057 39.1732 28.962 39.3281 29.1598 39.3913L32.9827 40.6212C33.3202 40.7297 33.505 41.0932 33.3972 41.4317C33.3344 41.6295 33.1793 41.7856 32.9827 41.8488L29.1598 43.0764C28.962 43.1395 28.8069 43.2945 28.7429 43.4935L27.5231 47.3419C27.4153 47.6815 27.0541 47.8674 26.7178 47.759C26.5212 47.6958 26.366 47.5397 26.3033 47.3419L25.0811 43.4935C25.0183 43.2957 24.8632 43.1395 24.6666 43.0764L20.8437 41.8488C20.5061 41.7403 20.3214 41.3768 20.4292 41.0384C20.4919 40.8405 20.6471 40.6844 20.8437 40.6212L24.6666 39.3913C24.8643 39.3281 25.0183 39.1732 25.0811 38.9741L26.3033 35.1258C26.411 34.7861 26.7722 34.6002 27.1086 34.7086C27.3052 34.7718 27.4603 34.9279 27.5231 35.1258Z" fill="white" stroke="black" stroke-width="0.6" stroke-linecap="round" stroke-linejoin="round"/>
<path d="M54.3232 54.4021C54.3232 54.4021 43.2611 39.9413 40.7584 36.4539C27.45 17.9245 57.277 -3.58364 71.5355 15.3449C82.0607 29.3213 86.6227 36.272 86.6227 36.272" stroke="#B7E8EA" stroke-width="0.6" stroke-linecap="round" stroke-linejoin="round"/>
<path d="M41.2596 22.6768C39.9482 25.8285 40.1339 29.4113 41.7637 32.408" stroke="#B7E8EA" stroke-width="0.6" stroke-linecap="round" stroke-linejoin="round"/>
<path fill-rule="evenodd" clip-rule="evenodd" d="M72.1805 76.1929C72.1805 76.1929 72.7616 91.9124 68.0467 96.197C63.3318 100.482 51.7618 104.476 49.441 103.954C47.1201 103.431 54.2405 100.192 58.2416 93.4317C61.0034 88.772 61.6553 82.5524 61.6553 82.5524L72.1805 76.1929Z" fill="#009396" stroke="black" stroke-width="0.6" stroke-linecap="round" stroke-linejoin="round"/>
<path fill-rule="evenodd" clip-rule="evenodd" d="M56.454 56.8685C56.454 56.8685 41.2569 53.2018 36.1541 57.0058C31.0514 60.8111 25.1148 70.8475 25.1299 74.0794C25.1451 77.3113 29.9459 70.0745 37.4706 67.102C41.0206 65.6971 46.7538 67.1694 46.7538 67.1694L56.454 56.8672V56.8685Z" fill="#00BFBF" stroke="black" stroke-width="0.6" stroke-linecap="round" stroke-linejoin="round"/>
<path fill-rule="evenodd" clip-rule="evenodd" d="M54.7814 89.3747C48.1563 86.7429 41.7573 78.8348 40.4851 71.7162C39.8609 68.2212 40.5874 65.5665 42.274 64.079C42.274 64.0777 42.274 64.0764 42.2715 64.0764C42.2993 64.051 42.3283 64.0294 42.3586 64.004C42.3738 63.9913 42.3915 63.9785 42.4054 63.9646C53.2085 55.0699 64.6699 47.0359 74.9462 41.0082C90.7143 31.7588 105.353 29.2745 107.219 31.5694C109.06 33.8261 103.234 48.2463 90.4364 62.4846C82.7109 71.0818 73.041 80.3477 62.6649 88.903L62.6623 88.9004C60.9138 90.4325 58.142 90.7122 54.7801 89.3759L54.7814 89.3747Z" fill="#FFFEFE" stroke="black" stroke-width="0.6" stroke-linecap="round" stroke-linejoin="round"/>
<path fill-rule="evenodd" clip-rule="evenodd" d="M97.2838 54.024C97.2838 54.024 96.8833 51.6147 95.5252 50.2314L86.1055 61.1006C86.1055 61.1006 87.9538 62.2499 87.4863 65.2733" fill="#FFFEFE"/>
<path d="M97.2838 54.024C97.2838 54.024 96.8833 51.6147 95.5252 50.2314L86.1055 61.1006C86.1055 61.1006 87.9538 62.2499 87.4863 65.2733" stroke="black" stroke-width="0.6" stroke-linecap="round" stroke-linejoin="round"/>
<path fill-rule="evenodd" clip-rule="evenodd" d="M78.4435 71.4653L70.2783 79.0492L78.4435 71.4653Z" fill="#FFFEFE"/>
<path d="M78.4435 71.4653L70.2783 79.0492" stroke="black" stroke-width="0.6" stroke-linecap="round" stroke-linejoin="round"/>
<path fill-rule="evenodd" clip-rule="evenodd" d="M88.8697 41.13C88.9493 50.2039 71.6499 60.4806 64.5017 56.8037C60.5764 54.786 57.1767 54.3461 54.6133 54.4745C61.1614 49.6445 67.9482 45.1489 74.9473 41.0079C77.7192 39.3831 80.4544 37.9706 83.0923 36.7513C86.2217 36.5885 88.8406 37.5307 88.8697 41.1312V41.13Z" fill="#B7E8EA" stroke="black" stroke-width="0.6" stroke-linecap="round" stroke-linejoin="round"/>
<path fill-rule="evenodd" clip-rule="evenodd" d="M100.277 37.4878C97.6857 34.3577 95.3586 33.1333 93.6543 32.6959C100.902 30.5091 106.152 30.2561 107.219 31.5682C108.245 32.8282 106.887 37.8705 103.265 44.5542C103.113 42.5988 102.408 40.0649 100.277 37.4878Z" fill="#00BFBF" stroke="black" stroke-width="0.6" stroke-linecap="round" stroke-linejoin="round"/>
<path opacity="0.3" fill-rule="evenodd" clip-rule="evenodd" d="M62.6643 88.9011L62.6618 88.8986C60.9133 90.4306 58.1415 90.7103 54.7796 89.3741C50.517 87.6818 46.3516 83.8015 43.5811 79.3567C50.2984 74.6246 69.6041 60.8859 85.7285 48.0817C94.4471 41.1602 99.8177 35.2495 103.102 30.7983C105.259 30.6788 106.712 30.9458 107.219 31.5688C109.059 33.8255 103.234 48.2457 90.4359 62.484C82.7103 71.0812 73.0404 80.3472 62.6643 88.9024V88.9011Z" fill="#023B49"/>
<path fill-rule="evenodd" clip-rule="evenodd" d="M71.5364 41.7622C71.5364 41.7622 74.4472 36.9169 73.6703 31.3977C73.079 27.2034 71.4871 22.0187 72.1618 21.7911C72.8364 21.5635 73.4188 22.6531 73.7966 23.8139C74.6064 23.2837 75.9102 23.2036 76.8097 24.6988C78.2386 27.0737 80.8766 34.1134 78.6947 41.6376L71.5352 41.7622H71.5364Z" fill="#00BFBF" stroke="black" stroke-width="0.6" stroke-linecap="round" stroke-linejoin="round"/>
<path fill-rule="evenodd" clip-rule="evenodd" d="M73.7955 24.3179C73.7955 24.3179 73.2838 26.3724 75.5541 25.8346L73.7955 24.3179Z" fill="#00BFBF"/>
<path d="M73.7955 24.3179C73.7955 24.3179 73.2838 26.3724 75.5541 25.8346" stroke="black" stroke-width="0.6" stroke-linecap="round" stroke-linejoin="round"/>
<path fill-rule="evenodd" clip-rule="evenodd" d="M59.9772 55.0342C59.9772 55.0342 44.5084 32.3512 50.4311 22.9289C56.3526 13.5066 86.4828 47.0727 86.4828 47.0727C86.4828 47.0727 84.6079 51.7603 75.6797 55.7945C66.2473 60.0562 62.5292 55.3393 59.9784 55.0342H59.9772Z" fill="#00BFBF" stroke="black" stroke-width="0.6" stroke-linecap="round" stroke-linejoin="round"/>
<path fill-rule="evenodd" clip-rule="evenodd" d="M52.2197 30.0103C52.7036 29.9849 53.1407 30.8723 53.1938 31.9873C53.2469 33.1023 52.8956 34.0266 52.4118 34.0495C51.9279 34.0724 51.4908 33.1875 51.4377 32.07C51.3859 30.9524 51.7359 30.0332 52.2197 30.0103Z" fill="#3DE2E2"/>
<g style="mix-blend-mode:multiply" opacity="0.6">
<path fill-rule="evenodd" clip-rule="evenodd" d="M75.6789 55.7949C66.2465 60.0566 62.5284 55.3398 59.9776 55.0346C59.9776 55.0346 58.6435 53.0767 56.9102 50.0749C60.0951 50.6204 65.1196 51.0946 70.029 49.9796C78.6011 48.0267 81.6395 45.1254 82.6729 42.9971C85.0177 45.4394 86.4833 47.0719 86.4833 47.0719C86.4833 47.0719 84.6084 51.7595 75.6801 55.7937L75.6789 55.7949Z" fill="#009396"/>
</g>
<path fill-rule="evenodd" clip-rule="evenodd" d="M67.6406 49.22C67.6406 49.22 81.4796 55.2515 85.2281 45.3029C86.9665 40.6852 84.4726 40.1283 83.7196 39.9935C82.9666 39.8588 80.3338 42.9482 79.5732 44.5426C79.5732 44.5426 72.5981 43.8357 70.5287 43.7848" fill="#00BFBF"/>
<path d="M67.6406 49.22C67.6406 49.22 81.4796 55.2515 85.2281 45.3029C86.9665 40.6852 84.4726 40.1283 83.7196 39.9935C82.9666 39.8588 80.3338 42.9482 79.5732 44.5426C79.5732 44.5426 72.5981 43.8357 70.5287 43.7848" stroke="black" stroke-width="0.6" stroke-linecap="round" stroke-linejoin="round"/>
<path fill-rule="evenodd" clip-rule="evenodd" d="M78.8223 46.1876C79.1166 45.4121 79.4527 44.653 79.8254 43.9131L78.8223 46.1876Z" fill="#00BFBF"/>
<path d="M78.8223 46.1876C79.1166 45.4121 79.4527 44.653 79.8254 43.9131" stroke="black" stroke-width="0.6" stroke-linecap="round" stroke-linejoin="round"/>
<path fill-rule="evenodd" clip-rule="evenodd" d="M72.1983 35.6907L67.2598 38.7751C67.2598 38.7751 69.7789 43.047 74.3915 40.5996C76.9372 39.2443 72.1983 35.6895 72.1983 35.6895V35.6907Z" fill="#840C16" stroke="black" stroke-width="0.6" stroke-linecap="round" stroke-linejoin="round"/>
<path fill-rule="evenodd" clip-rule="evenodd" d="M69.209 40.6747C70.6543 39.1554 73.0383 39.0677 74.5897 40.4776C74.5278 40.5196 74.4634 40.5603 74.3913 40.5997C72.1552 41.7872 70.4142 41.3918 69.2102 40.6747H69.209Z" fill="#D3212F" stroke="black" stroke-width="0.6" stroke-linecap="round" stroke-linejoin="round"/>
<path fill-rule="evenodd" clip-rule="evenodd" d="M73.2962 36.6281C73.089 36.8138 72.8565 36.9701 72.6076 37.0935C72.1958 37.2854 71.6121 37.3859 71.2369 37.6554C70.9387 37.8703 70.8591 38.3076 70.5509 38.4958C70.2527 38.6789 69.7284 38.6039 69.4555 38.7755C69.2243 38.923 68.9716 39.3604 68.7695 39.4786C68.5484 39.6057 68.3122 39.7049 68.0671 39.7761C67.7613 39.4748 67.491 39.1391 67.2598 38.7768L72.1983 35.6924C72.1983 35.6924 72.7024 36.0725 73.2962 36.6294V36.6281Z" fill="white" stroke="black" stroke-width="0.6" stroke-linecap="round" stroke-linejoin="round"/>
<path d="M66.2428 35.1666C66.4706 33.7548 65.5179 32.4245 64.1149 32.1953C62.712 31.9661 61.3901 32.9248 61.1623 34.3367C60.9346 35.7485 61.8873 37.0788 63.2902 37.308C64.6932 37.5372 66.0151 36.5785 66.2428 35.1666Z" fill="white" stroke="black" stroke-width="0.6" stroke-linecap="round" stroke-linejoin="round"/>
<path d="M69.3352 33.2969C70.7565 33.2969 71.9087 32.1373 71.9087 30.707C71.9087 29.2767 70.7565 28.1172 69.3352 28.1172C67.9139 28.1172 66.7617 29.2767 66.7617 30.707C66.7617 32.1373 67.9139 33.2969 69.3352 33.2969Z" fill="white" stroke="black" stroke-width="0.6" stroke-linecap="round" stroke-linejoin="round"/>
<path fill-rule="evenodd" clip-rule="evenodd" d="M59.8533 28.4909C59.8533 28.4909 56.8679 30.6154 58.0946 34.0533C58.0946 34.0533 59.1698 30.8189 60.8564 29.756C60.8564 29.756 60.586 28.3613 59.8533 28.4909Z" fill="black" stroke="black" stroke-width="0.6" stroke-linecap="round" stroke-linejoin="round"/>
<path fill-rule="evenodd" clip-rule="evenodd" d="M63.36 27.2178C63.36 27.2178 66.1938 24.9433 69.145 27.05C69.145 27.05 65.7668 27.2 64.2962 28.5248C64.2962 28.5248 63.0391 27.8878 63.36 27.2178Z" fill="black" stroke="black" stroke-width="0.6" stroke-linecap="round" stroke-linejoin="round"/>
<path fill-rule="evenodd" clip-rule="evenodd" d="M63.6994 34.6777C64.2919 34.6752 64.7733 35.1571 64.7745 35.7521C64.777 36.3484 64.2982 36.8328 63.707 36.834C63.1144 36.8366 62.6331 36.3547 62.6318 35.7597V35.7572C62.6306 35.1621 63.1081 34.679 63.6994 34.6777Z" fill="black" stroke="black" stroke-width="0.6" stroke-linecap="round" stroke-linejoin="round"/>
<path fill-rule="evenodd" clip-rule="evenodd" d="M69.2096 30.2588C69.8008 30.2563 70.2822 30.7356 70.2847 31.3319C70.2872 31.9269 69.8109 32.4113 69.2197 32.4138C68.6284 32.4164 68.1471 31.937 68.1445 31.342V31.3369C68.1433 30.7432 68.6208 30.2613 69.2108 30.2601L69.2096 30.2588Z" fill="black" stroke="black" stroke-width="0.6" stroke-linecap="round" stroke-linejoin="round"/>
<path d="M63.1335 35.4407C63.2731 35.4407 63.3862 35.3268 63.3862 35.1864C63.3862 35.046 63.2731 34.9321 63.1335 34.9321C62.994 34.9321 62.8809 35.046 62.8809 35.1864C62.8809 35.3268 62.994 35.4407 63.1335 35.4407Z" fill="white"/>
<path d="M68.3962 31.6565C68.5358 31.6565 68.6489 31.5427 68.6489 31.4022C68.6489 31.2618 68.5358 31.1479 68.3962 31.1479C68.2567 31.1479 68.1436 31.2618 68.1436 31.4022C68.1436 31.5427 68.2567 31.6565 68.3962 31.6565Z" fill="white"/>
<path fill-rule="evenodd" clip-rule="evenodd" d="M66.2713 37.4579C66.2713 37.4579 63.857 36.4751 62.25 38.2233L66.2713 37.4579Z" fill="#00BFBF"/>
<path d="M66.2713 37.4579C66.2713 37.4579 63.857 36.4751 62.25 38.2233" stroke="black" stroke-width="0.6" stroke-linecap="round" stroke-linejoin="round"/>
<path fill-rule="evenodd" clip-rule="evenodd" d="M56.8183 88.1495C63.5496 90.7889 67.9891 87.0726 66.7269 79.8498C65.4648 72.6271 58.9888 64.6338 52.255 61.9931C45.5212 59.3537 41.0842 63.07 42.3463 70.2928C43.6084 77.5156 50.0845 85.5114 56.8183 88.1495Z" fill="#00BFBF" stroke="black" stroke-width="0.6" stroke-linecap="round" stroke-linejoin="round"/>
<path fill-rule="evenodd" clip-rule="evenodd" d="M54.7807 89.3746C61.4033 92.0064 65.7404 88.3702 64.4682 81.2478C63.196 74.1255 56.797 66.2212 50.1719 63.5894C43.5467 60.9576 39.2121 64.5938 40.4843 71.7162C41.7565 78.8385 48.1555 86.7428 54.7807 89.3746Z" fill="#008C96" stroke="black" stroke-width="0.6" stroke-linecap="round" stroke-linejoin="round"/>
<path fill-rule="evenodd" clip-rule="evenodd" d="M56.4188 91.4266L54.9179 89.5869C54.2407 89.4496 53.5774 89.2513 52.9357 88.9919C47.1898 86.697 41.6259 79.8353 40.5053 73.6678C40.384 73.0092 40.3183 72.3417 40.3095 71.673L38.7871 69.8053L41.986 67.1036C43.4957 65.7317 45.9252 65.4736 48.884 66.6535C54.6298 68.9484 60.1937 75.8101 61.3144 81.9776C61.9423 85.4396 61.0364 87.9468 59.1035 89.0771L56.4188 91.4266Z" fill="#006769" stroke="black" stroke-width="0.6" stroke-linecap="round" stroke-linejoin="round"/>
<path fill-rule="evenodd" clip-rule="evenodd" d="M49.7916 91.6569C55.5399 93.9518 59.2884 90.8114 58.1703 84.6426C57.0522 78.4725 51.4857 71.6134 45.7399 69.3185C39.9941 67.0236 36.2431 70.164 37.3612 76.3328C38.4793 82.5029 44.0457 89.362 49.7916 91.6569Z" fill="#008C96" stroke="black" stroke-width="0.6" stroke-linecap="round" stroke-linejoin="round"/>
<path fill-rule="evenodd" clip-rule="evenodd" d="M49.1685 89.5617C53.819 91.4192 56.8561 88.8764 55.9503 83.8798C55.0444 78.8833 50.5405 73.326 45.8875 71.4685C41.2345 69.611 38.1973 72.1512 39.1032 77.1478C40.009 82.1444 44.5155 87.7016 49.1685 89.5617Z" fill="#005B62" stroke="black" stroke-width="0.6" stroke-linecap="round" stroke-linejoin="round"/>
<path fill-rule="evenodd" clip-rule="evenodd" d="M43.0066 73.7083C42.8196 72.77 42.7982 71.8063 42.9447 70.8604C43.9567 70.8642 44.9573 71.0701 45.8884 71.4681C50.5414 73.3256 55.0466 78.8829 55.9512 83.8794C56.1381 84.8177 56.1596 85.7814 56.0156 86.7274C55.0036 86.7235 54.0018 86.5176 53.0694 86.1222C48.4189 84.2621 43.9137 78.7049 43.0066 73.7083Z" fill="#020303" stroke="black" stroke-width="0.6" stroke-linecap="round" stroke-linejoin="round"/>
<path fill-rule="evenodd" clip-rule="evenodd" d="M20.7217 102.394C18.1558 99.2443 34.2803 81.6978 37.4097 79.1181C40.4936 76.4812 45.1188 76.8601 47.739 79.9636C50.3593 83.0671 49.9828 87.7216 46.8989 90.3585C46.8332 90.4144 46.7675 90.4691 46.7005 90.5225C43.5686 93.1022 23.2864 105.544 20.7217 102.395V102.394Z" fill="#00BFBF" stroke="black" stroke-width="0.6" stroke-linecap="round" stroke-linejoin="round"/>
<path fill-rule="evenodd" clip-rule="evenodd" d="M45.2618 82.2156C43.8519 80.4877 41.3188 80.236 39.6006 81.6536C37.8812 83.0687 29.0287 92.7058 30.4374 94.4324C31.846 96.1602 42.9764 89.3252 44.6958 87.9076C46.414 86.4938 46.6679 83.9459 45.2631 82.2168C45.2631 82.2168 45.2631 82.2168 45.2631 82.2156H45.2618Z" fill="white" stroke="black" stroke-width="0.6" stroke-linecap="round" stroke-linejoin="round"/>
<path fill-rule="evenodd" clip-rule="evenodd" d="M42.4948 83.3221C42.4948 83.3221 41.7444 84.0316 42.39 84.8224C43.0204 85.5992 44.0892 85.2826 44.0892 85.2826C44.0892 85.2826 64.4927 72.2915 68.0454 69.3635C71.598 66.4355 74.3054 61.2787 73.0685 59.7619C71.8317 58.2451 66.2766 59.9018 62.7253 62.8298C59.1727 65.7565 42.4948 83.3234 42.4948 83.3234V83.3221Z" fill="#00BFBF" stroke="black" stroke-width="0.6" stroke-linecap="round" stroke-linejoin="round"/>
<path fill-rule="evenodd" clip-rule="evenodd" d="M69.3315 63.0459L45.5371 82.6572L69.3315 63.0459Z" fill="#D92828"/>
<path d="M69.3315 63.0459L45.5371 82.6572" stroke="black" stroke-width="0.6" stroke-linecap="round" stroke-linejoin="round"/>
</g>
<defs>
<clipPath id="clip0_29826_6759">
<rect width="128" height="96" fill="white"/>
</clipPath>
</defs>
</svg>
