<svg width="128" height="96" viewBox="0 0 128 96" fill="none" xmlns="http://www.w3.org/2000/svg">
<g clip-path="url(#clip0_29826_8372)">
<path fill-rule="evenodd" clip-rule="evenodd" d="M65.1582 65.2577C65.1582 65.2577 59.2218 61.1419 56.9165 53.4393C55.5566 48.9372 54.4743 44.3547 53.6717 39.7199C53.6717 39.7199 56.0334 32.1038 52.1449 32.8622C49.7912 33.3208 46.7657 35.7771 46.3554 39.9532C45.9249 44.3426 45.6533 50.2609 47.4175 57.7965C50.093 69.2287 57.4858 77.0841 57.4858 77.0841L65.1582 65.2577Z" fill="#00BFBF" stroke="black" stroke-width="0.7" stroke-linecap="round" stroke-linejoin="round"/>
<path fill-rule="evenodd" clip-rule="evenodd" d="M62.6437 63.0356L55.2127 74.2767C52.8128 71.0239 49.1396 65.1519 47.4176 57.7973C47.2165 56.9363 47.0414 56.0975 46.8926 55.2808C48.4677 58.9983 50.8535 63.3052 53.6658 64.0596C57.2747 65.0312 60.622 63.5808 62.2756 62.6474C62.4003 62.7822 62.523 62.9129 62.6437 63.0377V63.0356Z" fill="#007D87"/>
<path fill-rule="evenodd" clip-rule="evenodd" d="M90.1592 68.5367C90.1592 68.5367 92.4062 69.8825 92.8086 72.2723C93.2109 74.6621 97.0491 88.0034 106.558 95.5249C116.067 103.046 111.662 108.496 104.412 109.379C92.885 110.783 88.4835 102 77.333 106.136C66.1845 110.274 57.3594 90.9645 57.3594 90.9645C57.3594 90.9645 82.0865 69.3273 90.1612 68.5347L90.1592 68.5367Z" fill="#E13838" stroke="black" stroke-width="0.7" stroke-linecap="round" stroke-linejoin="round"/>
<path fill-rule="evenodd" clip-rule="evenodd" d="M92.9568 107.597C89.9555 106.454 87.1613 105.199 83.8522 105.04C81.416 104.097 79.4829 103.067 78.5434 102.103C74.9305 98.3956 73.2468 67.6295 90.1023 75.0867C90.1023 75.0867 92.5746 77.7038 94.3972 82.5841C96.2177 87.4663 110.486 104.04 105.516 107.287C103.24 108.774 98.1529 108.589 92.9609 107.597H92.9568Z" fill="#A30D0D"/>
<path fill-rule="evenodd" clip-rule="evenodd" d="M90.985 32.0756C86.0243 31.1181 77.8328 39.402 71.1321 48.5771C63.4395 59.1121 56.6181 69.0818 53.8762 73.7871C48.1953 83.5335 39.7766 94.4929 40.9936 106.704C42.6532 123.362 58.3461 124.153 60.6031 123.533C63.9465 122.614 58.7041 117.677 61.3032 112.441C61.8765 111.286 64.9523 113.624 64.9523 113.624C64.9523 113.624 68.7945 120.351 73.4334 124.843C78.0722 129.335 89.9631 128.276 91.8701 126.305C94.3283 123.766 87.871 119.922 86.3662 117.808C86.3662 117.808 90.3433 113.539 90.3211 98.3533C90.3091 90.0311 88.6776 79.649 92.7512 56.2153C94.9298 43.6969 98.3194 33.4918 90.985 32.0736V32.0756Z" fill="#00BFBF" stroke="black" stroke-width="0.7" stroke-linecap="round" stroke-linejoin="round"/>
<g style="mix-blend-mode:multiply" opacity="0.6">
<path fill-rule="evenodd" clip-rule="evenodd" d="M90.3216 98.3534C90.3458 113.539 86.3667 117.808 86.3667 117.808C87.8715 119.922 94.3288 123.767 91.8706 126.305C89.9616 128.275 78.0727 129.337 73.4339 124.843C68.795 120.349 64.9528 113.624 64.9528 113.624C64.9528 113.624 61.877 111.284 61.3037 112.441C58.7046 117.677 63.947 122.612 60.6036 123.533C58.4371 124.127 43.8989 123.421 41.2637 108.635C42.7885 111.759 45.6812 116.553 49.8132 118.536C57.5439 122.248 60.9013 119.707 58.5095 116.551C56.1177 113.396 56.9002 108.995 58.1796 109.383C61.0884 111.437 64.6752 113.022 64.6752 113.022C64.6752 113.022 72.6896 122.332 79.2073 123.61C83.6349 124.475 80.1729 120.091 80.8569 116.881C81.8788 112.105 84.681 109.601 84.516 102.779C84.2948 93.5033 81.5348 85.1148 81.5187 85.1228C81.5187 85.1228 87.9097 82.6646 88.1229 80.9306C88.3361 79.1965 91.2852 55.7528 93.7354 43.6568C94.87 38.0624 93.9667 34.6728 92.6672 32.6431C97.7386 35.2884 94.7432 44.7874 92.7537 56.2155C88.6801 79.6492 90.3116 90.0292 90.3237 98.3534H90.3216Z" fill="#007D87"/>
</g>
<path fill-rule="evenodd" clip-rule="evenodd" d="M69.2878 57.0685C69.2878 57.0685 79.5774 59.8043 81.8022 61.7878C84.0271 63.7733 79.34 68.3598 72.2872 66.0987C65.2343 63.8376 67.3868 56.7667 69.2858 57.0685H69.2878Z" fill="#4D1816" stroke="black" stroke-width="0.7" stroke-linecap="round" stroke-linejoin="round"/>
<path fill-rule="evenodd" clip-rule="evenodd" d="M79.8389 65.9055C78.0384 66.7605 75.3931 67.0944 72.2851 66.0986C70.3157 65.469 69.0645 64.4611 68.3242 63.3447C69.9255 62.2041 72.2228 61.7374 74.5945 62.2604C76.9743 62.7854 78.8693 64.1876 79.8389 65.9055Z" fill="#C7342E" stroke="black" stroke-width="0.7" stroke-linecap="round" stroke-linejoin="round"/>
<path fill-rule="evenodd" clip-rule="evenodd" d="M69.2863 57.0685C69.2863 57.0685 79.5759 59.8044 81.8008 61.7878C82.2876 62.2022 82.4787 62.8681 82.2835 63.4776C78.0128 61.4619 70.0025 58.8891 67.8701 58.2172C68.2322 57.4507 68.7673 56.986 69.2843 57.0685H69.2863Z" fill="white" stroke="black" stroke-width="0.7" stroke-linecap="round" stroke-linejoin="round"/>
<path fill-rule="evenodd" clip-rule="evenodd" d="M83.0428 60.3008C83.0428 60.3008 79.7397 63.4832 83.6141 66.2693L83.0428 60.3008Z" fill="#00BFBF"/>
<path d="M83.0428 60.3008C83.0428 60.3008 79.7397 63.4832 83.6141 66.2693" stroke="black" stroke-width="0.7" stroke-linecap="round" stroke-linejoin="round"/>
<path d="M82.7267 58.3479C84.7498 58.3479 86.3899 56.7078 86.3899 54.6847C86.3899 52.6616 84.7498 51.0215 82.7267 51.0215C80.7035 51.0215 79.0635 52.6616 79.0635 54.6847C79.0635 56.7078 80.7035 58.3479 82.7267 58.3479Z" fill="white" stroke="black" stroke-width="0.7" stroke-linecap="round" stroke-linejoin="round"/>
<path fill-rule="evenodd" clip-rule="evenodd" d="M71.685 47.9038C73.4814 46.9765 75.6902 47.6805 76.6195 49.4769C77.5489 51.2733 76.8428 53.4821 75.0464 54.4115C73.2541 55.3368 71.0493 54.6388 70.1179 52.8505C69.1825 51.0641 69.8705 48.8553 71.6588 47.9199C71.6669 47.9159 71.6769 47.9099 71.685 47.9058V47.9038Z" fill="white" stroke="black" stroke-width="0.7" stroke-linecap="round" stroke-linejoin="round"/>
<path fill-rule="evenodd" clip-rule="evenodd" d="M84.4827 43.4136C84.4827 43.4136 88.9163 44.0231 89.5078 48.4286C89.5078 48.4286 86.5265 45.5439 84.0964 45.3488C84.0964 45.3488 83.6116 43.6912 84.4827 43.4136Z" fill="black" stroke="black" stroke-width="0.7" stroke-linecap="round" stroke-linejoin="round"/>
<path fill-rule="evenodd" clip-rule="evenodd" d="M80.2528 42.3453C80.2528 42.3453 76.2858 40.3498 73.2744 43.6066C73.2744 43.6066 77.3621 42.9307 79.4562 44.1377C79.4562 44.1377 80.804 43.0615 80.2528 42.3453Z" fill="black" stroke="black" stroke-width="0.7" stroke-linecap="round" stroke-linejoin="round"/>
<path d="M80.9154 55.2253C81.4042 55.2253 81.8005 54.829 81.8005 54.3402C81.8005 53.8514 81.4042 53.4551 80.9154 53.4551C80.4266 53.4551 80.0303 53.8514 80.0303 54.3402C80.0303 54.829 80.4266 55.2253 80.9154 55.2253Z" fill="black" stroke="black" stroke-width="0.7" stroke-linecap="round" stroke-linejoin="round"/>
<path fill-rule="evenodd" clip-rule="evenodd" d="M70.8852 50.2546C71.2634 50.0574 71.7301 50.2043 71.9272 50.5825C72.1244 50.9607 71.9775 51.4274 71.5993 51.6245C71.2212 51.8217 70.7545 51.6748 70.5573 51.2966C70.3602 50.9184 70.507 50.4517 70.8852 50.2546Z" fill="black" stroke="black" stroke-width="0.7" stroke-linecap="round" stroke-linejoin="round"/>
<path fill-rule="evenodd" clip-rule="evenodd" d="M88.8908 75.5273C88.8908 75.5273 92.3891 84.4832 94.4792 88.8404C99.6692 99.6671 104.757 105.189 102.958 106.472C100.158 108.474 91.001 104.477 85.6098 94.1632C84.1091 91.2946 80.8945 83.5558 80.8945 83.5558" fill="#00BFBF"/>
<path d="M88.8908 75.5273C88.8908 75.5273 92.3891 84.4832 94.4792 88.8404C99.6692 99.6671 104.757 105.189 102.958 106.472C100.158 108.474 91.001 104.477 85.6098 94.1632C84.1091 91.2946 80.8945 83.5558 80.8945 83.5558" stroke="black" stroke-width="0.7" stroke-linecap="round" stroke-linejoin="round"/>
<g style="mix-blend-mode:multiply" opacity="0.6">
<path fill-rule="evenodd" clip-rule="evenodd" d="M94.4773 88.8377C99.6673 99.6644 104.755 105.186 102.956 106.47C100.156 108.471 90.9992 104.474 85.608 94.1606C85.5275 94.0097 85.443 93.8407 85.3545 93.6637C88.5148 97.4878 92.5964 102.02 94.8354 102.873C98.6112 104.313 95.4529 93.553 90.7316 80.1313C91.8964 82.9939 93.383 86.5505 94.4793 88.8377H94.4773Z" fill="#007D87"/>
</g>
<path fill-rule="evenodd" clip-rule="evenodd" d="M92.084 76.8485C92.084 76.8485 89.8249 74.2113 87.5256 74.4647C83.6854 74.8912 77.224 75.2614 70.4025 73.0848C62.0461 70.4173 60.9297 62.2923 60.9297 62.2923C60.9297 62.2923 61.5211 61.2764 62.1407 60.1982C62.36 59.8622 62.7301 59.657 63.1304 59.647L62.5812 60.6387C62.5812 60.6387 63.0982 67.0337 70.3402 70.9001C81.7965 74.3461 91.1385 70.2443 91.1385 70.2443" fill="#E13838"/>
<path d="M92.084 76.8485C92.084 76.8485 89.8249 74.2113 87.5256 74.4647C83.6854 74.8912 77.224 75.2614 70.4025 73.0848C62.0461 70.4173 60.9297 62.2923 60.9297 62.2923C60.9297 62.2923 61.5211 61.2764 62.1407 60.1982C62.36 59.8622 62.7301 59.657 63.1304 59.647L62.5812 60.6387C62.5812 60.6387 63.0982 67.0337 70.3402 70.9001C81.7965 74.3461 91.1385 70.2443 91.1385 70.2443" stroke="black" stroke-width="0.7" stroke-linecap="round" stroke-linejoin="round"/>
<path fill-rule="evenodd" clip-rule="evenodd" d="M68.3045 71.0051C68.3045 71.0051 62.9796 75.1149 61.7022 77.1788C61.7022 77.1788 61.5433 79.4922 63.0219 79.9348C64.5004 80.3773 69.2982 72.1054 69.2982 72.1054C69.2982 72.1054 69.9238 70.3734 68.3065 71.0031L68.3045 71.0051ZM70.4066 71.9244C70.4066 71.9244 72.1326 78.4119 71.8932 80.8239C71.8932 80.8239 70.6158 82.743 69.1795 82.1918C67.7432 81.6406 68.9562 72.1899 68.9562 72.1899C68.9562 72.1899 69.5074 70.4398 70.4066 71.9244Z" fill="#E13838" stroke="black" stroke-width="0.7" stroke-linecap="round" stroke-linejoin="round"/>
<path d="M70.3967 79.1637L69.8455 72.4367L69.075 71.7749L64.0117 77.1782" stroke="black" stroke-width="0.7" stroke-linecap="round" stroke-linejoin="round"/>
<path d="M69.5715 73.978C70.8181 73.978 71.8286 72.9675 71.8286 71.7209C71.8286 70.4744 70.8181 69.4639 69.5715 69.4639C68.325 69.4639 67.3145 70.4744 67.3145 71.7209C67.3145 72.9675 68.325 73.978 69.5715 73.978Z" fill="#E13838" stroke="black" stroke-width="0.7" stroke-linecap="round" stroke-linejoin="round"/>
<path fill-rule="evenodd" clip-rule="evenodd" d="M45.4838 55.1798C45.4838 55.1798 47.3265 51.422 45.7574 49.4587C44.1883 47.4953 42.9391 52.3957 42.9693 53.5081C42.9995 54.6205 44.8944 56.5638 45.4838 55.1798Z" fill="#84D1D3" stroke="black" stroke-width="0.7" stroke-linecap="round" stroke-linejoin="round"/>
<path fill-rule="evenodd" clip-rule="evenodd" d="M34.1207 52.9776L21.216 61.6598C21.216 61.6598 20.524 58.9622 19.6489 57.54C18.7739 56.1177 16.5349 53.8949 16.5349 53.8949L16.545 53.8888C16.5208 53.8687 16.5007 53.8466 16.4806 53.8224C15.9294 52.9232 18.4621 50.3383 22.1353 48.049C25.8086 45.7598 29.2324 44.6312 29.7836 45.5305C29.85 45.6471 29.8741 45.7839 29.852 45.9167C30.1135 47.1378 30.5903 48.3045 31.2581 49.3606C32.0829 50.6642 33.0445 51.8752 34.1227 52.9776H34.1207Z" fill="#0087B0" stroke="black" stroke-width="0.7" stroke-linecap="round" stroke-linejoin="round"/>
<g style="mix-blend-mode:multiply" opacity="0.4">
<path fill-rule="evenodd" clip-rule="evenodd" d="M19.6444 57.5388C18.7673 56.1146 16.5304 53.8937 16.5304 53.8937L16.5404 53.8877C16.5163 53.8675 16.4962 53.8454 16.4761 53.8213C16.2427 53.4371 16.5666 52.7511 17.3008 51.9082C18.1156 52.1013 18.8518 52.5358 19.4131 53.1554C21.125 55.1007 23.9272 59.476 23.9272 59.476L22.0664 61.0833L21.2115 61.6586C21.2115 61.6586 20.5215 58.961 19.6444 57.5388Z" fill="#0087B0"/>
</g>
<path fill-rule="evenodd" clip-rule="evenodd" d="M24.2173 50.3079L23.8351 50.9435L24.5894 50.9476L24.9656 50.3038L24.2153 50.3079M23.5293 49.0908L22.2197 51.2956L22.5838 51.9433L25.1447 51.9534L26.072 50.3843L26.5588 51.2473L25.6254 52.8083L23.819 52.8003L23.5675 52.3557H22.8132L23.4287 53.444L25.9895 53.4561L27.3072 51.2453L26.0962 49.0989L24.7785 51.3097H22.962L22.9721 51.3016L23.8914 49.7366L25.2774 49.7426L25.6637 49.0908H23.5293Z" fill="#CAFEFF"/>
<path fill-rule="evenodd" clip-rule="evenodd" d="M25.9119 54.3353C19.5994 58.252 15.2603 62.6897 16.2198 64.2467C17.1794 65.8037 23.0735 63.8927 29.386 59.976C35.6986 56.0593 40.0357 51.6196 39.0781 50.0626C38.1206 48.5056 32.2245 50.4166 25.9119 54.3353Z" fill="#00789C" stroke="black" stroke-width="0.7" stroke-linecap="round" stroke-linejoin="round"/>
<path fill-rule="evenodd" clip-rule="evenodd" d="M26.6462 55.7728C22.5424 58.3236 19.7181 61.2123 20.3397 62.2201C20.9613 63.2279 24.7934 61.9827 28.8972 59.432C33.0009 56.8812 35.8253 53.9925 35.2037 52.9847C34.5821 51.9748 30.7519 53.222 26.6462 55.7728Z" fill="black" stroke="black" stroke-width="0.7" stroke-linecap="round" stroke-linejoin="round"/>
<path d="M33.2381 80.3897C40.4651 80.3897 46.3238 74.5311 46.3238 67.304C46.3238 60.0769 40.4651 54.2183 33.2381 54.2183C26.011 54.2183 20.1523 60.0769 20.1523 67.304C20.1523 74.5311 26.011 80.3897 33.2381 80.3897Z" fill="#84D1D3" stroke="black" stroke-width="0.7" stroke-linecap="round" stroke-linejoin="round"/>
<path fill-rule="evenodd" clip-rule="evenodd" d="M36.962 75.3439C30.7621 77.6694 23.8803 74.5835 21.593 68.446C20.9976 66.8487 20.7562 65.1408 20.889 63.441C23.2305 56.6598 30.6253 53.0609 37.4066 55.4005C40.3637 56.4224 42.8541 58.4763 44.4172 61.186C45.9259 67.0016 42.7716 73.1633 36.962 75.3439Z" fill="#CAFEFF"/>
<path fill-rule="evenodd" clip-rule="evenodd" d="M19.7162 75.8433C19.7162 75.8433 19.0966 79.6453 21.0037 80.9549C22.9107 82.2645 22.7015 77.6115 22.3776 76.6379C22.0538 75.6643 19.8631 74.4633 19.7162 75.8433Z" fill="#C5F7F8" stroke="black" stroke-width="0.7" stroke-linecap="round" stroke-linejoin="round"/>
<path fill-rule="evenodd" clip-rule="evenodd" d="M31.087 61.8304C32.0324 61.7821 31.0326 59.7262 30.1395 59.2876C29.2463 58.8491 23.8873 59.4687 24.0261 60.2512C24.1649 61.0338 24.6839 62.796 25.5469 62.6572C26.7136 62.4681 29.186 61.9289 31.089 61.8304H31.087Z" fill="black" stroke="black" stroke-width="0.7" stroke-linecap="round" stroke-linejoin="round"/>
<path fill-rule="evenodd" clip-rule="evenodd" d="M34.529 60.6872C33.7807 61.2746 33.1852 59.0517 33.5755 58.1284C33.9657 57.205 38.4296 54.1292 38.8379 54.8112C39.2463 55.4931 40.0127 57.1789 39.2664 57.6456C38.2606 58.2752 36.0357 59.5003 34.529 60.6872Z" fill="black" stroke="black" stroke-width="0.7" stroke-linecap="round" stroke-linejoin="round"/>
<path d="M38.8553 62.7121C39.483 62.7121 39.9919 62.2033 39.9919 61.5755C39.9919 60.9478 39.483 60.439 38.8553 60.439C38.2276 60.439 37.7188 60.9478 37.7188 61.5755C37.7188 62.2033 38.2276 62.7121 38.8553 62.7121Z" fill="black" stroke="black" stroke-width="0.7" stroke-linecap="round" stroke-linejoin="round"/>
<path d="M29.8074 65.2597C30.4329 65.2597 30.9399 64.7527 30.9399 64.1272C30.9399 63.5017 30.4329 62.9946 29.8074 62.9946C29.1819 62.9946 28.6748 63.5017 28.6748 64.1272C28.6748 64.7527 29.1819 65.2597 29.8074 65.2597Z" fill="black" stroke="black" stroke-width="0.7" stroke-linecap="round" stroke-linejoin="round"/>
<path fill-rule="evenodd" clip-rule="evenodd" d="M36.4757 67.3274C36.4757 67.3274 35.9245 69.6147 33.8606 68.9569C31.6759 68.2608 32.4665 66.5288 32.4665 66.5288L36.4757 67.3274Z" fill="#E13838" stroke="black" stroke-width="0.7" stroke-linecap="round" stroke-linejoin="round"/>
</g>
<defs>
<clipPath id="clip0_29826_8372">
<rect width="128" height="96" fill="white"/>
</clipPath>
</defs>
</svg>
