<svg width="89" height="20" viewBox="0 0 89 20" fill="none" xmlns="http://www.w3.org/2000/svg">
<g clip-path="url(#clip0_31685_16813)">
<path d="M54.0716 3.46191H51.7657V5.9425H50.3852V8.11894H51.7657V13.8135C51.7501 14.3128 51.8231 14.8108 51.9814 15.2846C52.1123 15.6377 52.3278 15.9532 52.6091 16.2035C52.8797 16.4504 53.2039 16.6313 53.5561 16.732C54.3555 16.9261 55.1898 16.9261 55.9892 16.732C56.3068 16.6482 56.6131 16.5265 56.9016 16.3696V14.6181C56.4697 14.8002 56.007 14.8983 55.5384 14.9071C55.3447 14.9292 55.1485 14.9081 54.9639 14.8454C54.7794 14.7828 54.6109 14.6801 54.4706 14.5447C54.2053 14.2945 54.0651 13.9667 54.0651 13.4145V8.11894H56.9016V5.9425H54.0716V3.46191ZM46.8175 6.71472C45.9783 6.1004 44.9854 5.73054 43.9488 5.64614C42.9123 5.56175 41.8726 5.76612 40.9451 6.2366C40.0176 6.70708 39.2386 7.42527 38.6944 8.31152C38.1502 9.19777 37.8621 10.2174 37.8621 11.2574C37.8621 12.2974 38.1502 13.3171 38.6944 14.2033C39.2386 15.0896 40.0176 15.8078 40.9451 16.2782C41.8726 16.7487 42.9123 16.9531 43.9488 16.8687C44.9854 16.7843 45.9783 16.4144 46.8175 15.8001V16.5788H49.1234V5.93387H46.8175V6.71472ZM43.4914 14.5728C42.8334 14.5728 42.1903 14.3777 41.6432 14.0121C41.0962 13.6465 40.6699 13.1269 40.4182 12.519C40.1665 11.9111 40.1008 11.2422 40.2293 10.5969C40.3578 9.95168 40.6748 9.35902 41.1402 8.89394C41.6056 8.42886 42.1984 8.11224 42.8438 7.98415C43.4891 7.85605 44.158 7.92223 44.7657 8.1743C45.3734 8.42638 45.8928 8.85304 46.258 9.4003C46.6232 9.94757 46.8179 10.5909 46.8175 11.2488C46.8175 11.6855 46.7314 12.1179 46.5643 12.5213C46.3971 12.9248 46.1521 13.2913 45.8432 13.6C45.5343 13.9087 45.1676 14.1535 44.7641 14.3204C44.3605 14.4873 43.928 14.5731 43.4914 14.5728ZM30.8555 9.1802V11.7471H34.3261C34.1105 12.6591 33.5875 13.469 32.8452 14.041C32.1028 14.6129 31.1862 14.9119 30.2493 14.8877C29.5095 14.8862 28.7819 14.6993 28.133 14.3439C27.4841 13.9885 26.9347 13.4761 26.5351 12.8535C26.1354 12.2309 25.8983 11.518 25.8454 10.7801C25.7925 10.0421 25.9255 9.30272 26.2322 8.62947C26.5389 7.95623 27.0096 7.37065 27.6011 6.92632C28.1926 6.482 28.8862 6.19311 29.6182 6.0861C30.3503 5.97909 31.0974 6.05737 31.7914 6.31377C32.4854 6.57018 33.104 6.99653 33.5906 7.5538L35.5772 5.93171C34.8181 5.03685 33.8458 4.34755 32.7501 3.92739C31.6544 3.50723 30.4705 3.36974 29.3077 3.52759C28.1449 3.68544 27.0405 4.13356 26.0965 4.83062C25.1524 5.52768 24.3991 6.45122 23.906 7.51608C23.4129 8.58094 23.1959 9.75283 23.2749 10.9237C23.354 12.0945 23.7266 13.2266 24.3584 14.2155C24.9901 15.2044 25.8608 16.0183 26.8899 16.5821C27.9191 17.1459 29.0737 17.4415 30.2472 17.4416C31.1475 17.458 32.0418 17.2924 32.8765 16.9548C33.7112 16.6171 34.4691 16.1143 35.1048 15.4766C36.1804 14.363 36.8485 12.9189 37.0008 11.3782C37.0634 10.6436 37.0742 9.90553 37.0332 9.16942L30.8555 9.1802ZM82.7278 5.62542C81.6139 5.62542 80.525 5.95573 79.5988 6.57458C78.6726 7.19343 77.9507 8.07303 77.5245 9.10215C77.0982 10.1313 76.9867 11.2637 77.204 12.3562C77.4213 13.4487 77.9577 14.4522 78.7453 15.2399C79.533 16.0275 80.5365 16.5639 81.629 16.7812C82.7215 16.9985 83.8539 16.887 84.883 16.4607C85.9121 16.0344 86.7917 15.3126 87.4106 14.3864C88.0295 13.4602 88.3598 12.3713 88.3598 11.2574C88.3609 10.5171 88.2161 9.7838 87.9335 9.0995C87.651 8.4152 87.2363 7.79331 86.7132 7.26942C86.1901 6.74552 85.5689 6.3299 84.885 6.04632C84.2012 5.76275 83.4681 5.61679 82.7278 5.61679V5.62542ZM82.7278 14.5814C82.0698 14.5814 81.4267 14.3863 80.8796 14.0207C80.3326 13.6551 79.9063 13.1355 79.6546 12.5276C79.4029 11.9197 79.3372 11.2508 79.4657 10.6056C79.5942 9.96031 79.9112 9.36765 80.3766 8.90257C80.842 8.43748 81.4348 8.12087 82.0802 7.99277C82.7255 7.86468 83.3944 7.93085 84.0021 8.18293C84.6098 8.43501 85.1292 8.86167 85.4944 9.40893C85.8596 9.9562 86.0543 10.5995 86.0539 11.2574C86.0516 12.1379 85.7001 12.9815 85.0765 13.603C84.4529 14.2246 83.6082 14.5734 82.7278 14.5728V14.5814ZM73.3231 16.5874H75.8037V7.03396H73.3231V16.5874ZM69.5332 16.5874H72.0138V14.0982H69.5332V16.5874ZM63.2476 5.62542C62.2525 5.62446 61.2749 5.88716 60.4144 6.38679C59.5538 6.88642 58.841 7.60514 58.3484 8.46979C57.8559 9.33444 57.6013 10.3141 57.6104 11.3092C57.6196 12.3042 57.8922 13.2791 58.4005 14.1345C58.9089 14.99 59.6348 15.6955 60.5044 16.1792C61.374 16.6629 62.3562 16.9076 63.3511 16.8884C64.346 16.8691 65.3181 16.5866 66.1683 16.0696C67.0186 15.5526 67.7167 14.8196 68.1915 13.9451L66.11 12.9334C65.777 13.4987 65.2843 13.9529 64.6939 14.2388C64.1035 14.5247 63.4417 14.6297 62.7917 14.5405C62.1418 14.4513 61.5328 14.1718 61.0412 13.7374C60.5497 13.3029 60.1976 12.7327 60.0293 12.0987H66.4659H68.8214C68.9441 11.2963 68.8921 10.4768 68.6687 9.69637C68.4453 8.91595 68.056 8.19301 67.5273 7.57705C66.9986 6.96108 66.343 6.46663 65.6055 6.12755C64.8679 5.78847 64.0658 5.61277 63.2541 5.61247L63.2476 5.62542ZM60.135 10.084C60.3729 9.45098 60.7982 8.90558 61.3542 8.52059C61.9101 8.1356 62.5703 7.92934 63.2465 7.92934C63.9228 7.92934 64.5829 8.1356 65.1389 8.52059C65.6948 8.90558 66.1202 9.45098 66.358 10.084H60.135ZM73.3231 5.95113H75.8037V3.47054H73.3231V5.95113Z" fill="black"/>
<path d="M11 15.5004C9.5412 15.5004 8.14214 14.9209 7.11061 13.8894C6.07908 12.8579 5.49957 11.4588 5.49957 10C5.49957 8.54119 6.07908 7.14214 7.11061 6.11061C8.14214 5.07908 9.5412 4.49957 11 4.49957V0C9.02219 0 7.08879 0.586489 5.4443 1.6853C3.79981 2.78412 2.51809 4.3459 1.76121 6.17316C1.00433 8.00042 0.806299 10.0111 1.19215 11.9509C1.578 13.8907 2.53041 15.6725 3.92894 17.0711C5.32746 18.4696 7.10929 19.422 9.0491 19.8078C10.9889 20.1937 12.9996 19.9957 14.8268 19.2388C16.6541 18.4819 18.2159 17.2002 19.3147 15.5557C20.4135 13.9112 21 11.9778 21 10H16.5004C16.5004 11.4588 15.9209 12.8579 14.8894 13.8894C13.8579 14.9209 12.4588 15.5004 11 15.5004Z" fill="#2354E6"/>
<path d="M16.5004 4.49951H11V9.99994H16.5004V4.49951Z" fill="#17E6A1"/>
</g>
<defs>
<clipPath id="clip0_31685_16813">
<rect width="88" height="20" fill="white" transform="translate(0.375)"/>
</clipPath>
</defs>
</svg>
