<svg width="69" height="20" viewBox="0 0 69 20" fill="none" xmlns="http://www.w3.org/2000/svg">
<g clip-path="url(#clip0_31685_16814)">
<path d="M27.8943 9.66815C28.3912 9.38592 28.7894 9.03451 29.0792 8.62015C29.4096 8.14838 29.5773 7.60952 29.5773 7.01947C29.5773 5.91476 29.1643 5.0525 28.3505 4.45622C27.5463 3.86685 26.4399 3.56836 25.0609 3.56836H20.0745V16.3646H25.2601C26.7124 16.3646 27.8752 16.0269 28.716 15.3605C29.5635 14.6885 29.9937 13.7473 29.9937 12.5627C29.9937 11.8416 29.7914 11.2211 29.3929 10.7189C29.0354 10.27 28.532 9.91682 27.8946 9.66815H27.8943ZM22.7729 5.87463H24.844C25.4936 5.87463 25.984 6.00053 26.3026 6.24818C26.6173 6.49271 26.7702 6.81402 26.7702 7.2301C26.7702 7.64618 26.6173 7.98375 26.3026 8.22933C25.984 8.47697 25.4936 8.60286 24.844 8.60286H22.7729V5.87463ZM26.672 13.6246C26.3129 13.9124 25.7648 14.0579 25.043 14.0579H22.7729V10.9264H25.043C25.7644 10.9264 26.3133 11.0672 26.6737 11.3435C27.031 11.6192 27.2047 11.9831 27.2047 12.4572C27.2047 12.956 27.0303 13.3378 26.672 13.6249V13.6246Z" fill="#03AAC1"/>
<path d="M33.6394 6.7959H30.9229V16.3641H33.6394V6.7959Z" fill="#03AAC1"/>
<path d="M60.4693 8.23451C60.0394 7.72262 59.5006 7.32141 58.8677 7.04159C58.2354 6.76213 57.5243 6.61963 56.755 6.61963C55.8122 6.61963 54.9617 6.83373 54.2264 7.25569C53.4893 7.67904 52.9044 8.26702 52.4874 9.00442C52.0702 9.74113 51.8589 10.5961 51.8589 11.5448C51.8589 12.4936 52.064 13.4049 52.4683 14.1531C52.8737 14.9036 53.4564 15.4923 54.2002 15.9042C54.9424 16.3137 55.8142 16.5216 56.7914 16.5216C57.9909 16.5216 59.0091 16.22 59.8185 15.6247C60.598 15.052 61.1341 14.244 61.4261 13.2327H58.6913C58.5474 13.5768 58.3447 13.8698 58.0545 14.0763C57.7114 14.3198 57.2683 14.4433 56.7371 14.4433C56.2764 14.4433 55.8817 14.3311 55.5639 14.1105C55.2447 13.8898 55.0008 13.5636 54.8407 13.14C54.7446 12.8882 54.6764 12.5987 54.6363 12.2767H61.4739L61.4873 12.1916C61.6093 11.42 61.5786 10.6888 61.3946 10.0185C61.2102 9.34648 60.899 8.74639 60.4693 8.23451ZM54.6795 10.5052C54.7213 10.3104 54.7777 10.1077 54.8493 9.92305C55.016 9.49382 55.2567 9.16351 55.5652 8.94285C55.8724 8.72218 56.2546 8.61082 56.7015 8.61082C57.2615 8.61082 57.7211 8.79239 58.0677 9.14968C58.3962 9.48967 58.5826 9.95417 58.6224 10.5052H54.6798H54.6795Z" fill="#03AAC1"/>
<path d="M33.6949 3.56738H30.865V5.87365H33.6949V3.56738Z" fill="#03AAC1"/>
<path d="M48.5716 7.88102C48.2503 7.49504 47.8737 7.19585 47.4489 6.98902C46.9419 6.7438 46.3486 6.61963 45.6857 6.61963C44.8739 6.61963 44.1462 6.81989 43.5236 7.21418C42.9018 7.60813 42.4085 8.16498 42.0582 8.86815C41.7092 9.56956 41.5317 10.3931 41.5317 11.3169C41.5317 12.2407 41.7182 13.0158 42.0862 13.7221C42.4548 14.4307 42.9661 14.9953 43.6053 15.4007C44.2458 15.807 44.9763 16.0132 45.7766 16.0132C46.3809 16.0132 46.9329 15.8824 47.4164 15.624C47.7992 15.4196 48.1199 15.1492 48.3728 14.8189V15.8607C48.3728 16.5064 48.203 17.002 47.8692 17.3323C47.5343 17.6626 47.0253 17.8293 46.3556 17.8293C45.7787 17.8293 45.3249 17.6986 45.0074 17.4402C44.7476 17.2289 44.5208 16.9515 44.4679 16.3642H41.8489C41.8732 17.186 42.1146 17.7398 42.4552 18.2249C42.8374 18.7687 43.375 19.1938 44.0542 19.4874C44.727 19.7776 45.5075 19.9249 46.3739 19.9249C47.8284 19.9249 48.9863 19.5594 49.8147 18.8393C50.6483 18.115 51.0708 17.1009 51.0708 15.8257V6.79533H48.5716V7.88102ZM48.0933 12.588C47.921 12.9435 47.6779 13.2224 47.3697 13.4153C47.0619 13.6083 46.6904 13.7065 46.265 13.7065C45.6501 13.7065 45.172 13.4973 44.8027 13.0664C44.4347 12.6378 44.2483 12.0491 44.2483 11.3166C44.2483 10.584 44.4347 9.99533 44.8027 9.56611C45.1672 9.14103 45.6593 8.9259 46.265 8.9259C46.8706 8.9259 47.4057 9.14415 47.7819 9.5758C48.1618 10.0109 48.3544 10.6027 48.3544 11.3335C48.3544 11.807 48.2666 12.2286 48.0933 12.5876V12.588Z" fill="#03AAC1"/>
<path d="M68.0646 9.08368V6.7954H66.1039V3.56738H63.4054V6.7954H61.7307V9.08368H63.4054V12.8295C63.4054 14.912 63.8156 16.4425 66.3726 16.3951L67.9778 16.3636V14.2181H67.1813C66.0448 14.2181 66.1081 13.5555 66.1081 12.3248L66.1036 9.08368H68.0643H68.0646Z" fill="#03AAC1"/>
<path d="M40.8715 9.08368V6.7954H38.9108V3.56738H36.2123V6.7954H34.5376V9.08368H36.2123V12.8295C36.2123 14.912 36.6225 16.4425 39.1795 16.3951L40.7847 16.3636V14.2181H39.9882C38.8517 14.2181 38.9149 13.5555 38.9149 12.3248L38.9105 9.08368H40.8711H40.8715Z" fill="#03AAC1"/>
<path d="M8.77271 5.87388H12.8474L17.0159 10.0157C17.287 10.2851 17.2884 10.7233 17.0186 10.9942L11.6728 16.3669H7.47534L8.74435 15.1332L13.4036 10.5034L8.80348 5.87354" fill="#03AAC1"/>
<path d="M10.4474 10.4934H6.37268L2.20424 6.35159C1.93308 6.08214 1.93169 5.64392 2.20147 5.37311L7.54725 0H11.7447L10.4758 1.23372L5.81652 5.86356L10.4166 10.4934" fill="#03AAC1"/>
</g>
<defs>
<clipPath id="clip0_31685_16814">
<rect width="68" height="20" fill="white" transform="translate(0.875)"/>
</clipPath>
</defs>
</svg>
