<svg width="104" height="20" viewBox="0 0 104 20" fill="none" xmlns="http://www.w3.org/2000/svg">
<path d="M25.0535 13.0974L19.7737 3.93052C18.6214 2.02148 15.7835 2.00428 14.6656 4.01652L9.12769 13.5445C8.09578 15.2988 9.36847 17.483 11.4495 17.483H22.5769C24.658 17.5002 26.2231 15.23 25.0535 13.0974Z" fill="#003087"/>
<path d="M17.4347 13.8194L17.1079 13.2518C16.7984 12.7187 16.1276 11.5836 16.1276 11.5836L11.656 3.80982C10.5037 2.08996 7.75193 1.93517 6.59963 4.11939L1.38846 13.1314C0.304954 15.0233 1.59485 17.4827 3.93386 17.4999H14.9925H19.7049H22.5083C19.6533 17.5171 18.7418 16.0208 17.4347 13.8194Z" fill="#1877F2"/>
<path d="M17.4346 13.7851L17.1078 13.2175C16.7982 12.6844 16.1275 11.5493 16.1275 11.5493L13.2381 6.4585L9.09326 13.5443C8.06135 15.2985 9.33404 17.4828 11.4151 17.4828H14.9752H19.6876H22.5082C19.636 17.4656 18.7417 16.0037 17.4346 13.7851Z" fill="url(#paint0_linear_32023_201726)"/>
<path d="M93.7916 6.43109C94.5654 5.70875 95.9241 5.36477 97.9019 5.36477H102.528V2.7334H97.0592C95.7521 2.7334 94.6514 2.87099 93.7916 3.14617C92.9487 3.42134 92.2092 3.8513 91.5729 4.45325C90.9021 5.1068 90.369 5.91513 89.9906 6.87824C89.6123 7.85856 89.423 8.92487 89.423 10.0428C89.423 11.1091 89.6123 12.141 89.9906 13.0869C90.369 14.0329 90.9021 14.8584 91.5729 15.5119C92.192 16.1139 92.9316 16.5438 93.7571 16.819C94.5998 17.0942 95.7177 17.2318 97.0592 17.2318H102.528V14.6348H97.9019C96.8528 14.6348 96.1305 14.6004 95.7177 14.5144C95.2877 14.4284 94.8923 14.2908 94.5654 14.0844C93.9119 13.6717 93.4131 13.1385 93.0863 12.4678C92.7768 11.8142 92.622 10.9887 92.622 10.0256C92.622 8.37452 93.0176 7.15343 93.7916 6.43109Z" fill="black"/>
<path d="M53.5297 17.2662H66.4287V14.7208H56.677V11.0919H65.1903V8.68409H56.677V5.31318H66.4287V2.7506H53.5297V17.2662Z" fill="black"/>
<path d="M69.6447 2.7506L75.6815 10.0084L69.6447 17.2662H73.5488L78.3128 11.5219V8.5121L73.5488 2.7506H69.6447Z" fill="black"/>
<path d="M84.2979 2.7506L79.5339 8.5121V11.5219L84.2979 17.2662H88.202L82.1481 10.0084L88.202 2.7506H84.2979Z" fill="black"/>
<path d="M40.8888 9.9052L35.0929 2.7506H32.1003V17.2662H35.2477V7.58339L40.2696 13.6029H41.4907L46.5127 7.53181V17.2662H49.66V2.7506H46.7019L40.8888 9.9052Z" fill="black"/>
<defs>
<linearGradient id="paint0_linear_32023_201726" x1="7.61397" y1="10.3329" x2="20.4624" y2="15.0809" gradientUnits="userSpaceOnUse">
<stop stop-color="#003087" stop-opacity="0"/>
<stop offset="1" stop-color="#003087"/>
</linearGradient>
</defs>
</svg>
