<svg width="89" height="20" viewBox="0 0 89 20" fill="none" xmlns="http://www.w3.org/2000/svg">
<g clip-path="url(#clip0_31685_17229)">
<path d="M70.0779 10.0002C70.0779 9.48102 70.0779 9.00174 70.058 8.5624C70.038 8.12306 69.998 7.70369 69.9381 7.32426C69.8782 6.94483 69.7584 6.58536 69.5987 6.24587C69.4389 5.90638 69.1993 5.58686 68.8997 5.28731C68.4803 4.86794 68.021 4.54842 67.5018 4.32875C66.9826 4.10908 66.3835 3.98926 65.7045 3.98926C65.0255 3.98926 64.4264 4.10908 63.9072 4.32875C63.388 4.54842 62.9087 4.86794 62.4893 5.28731C62.1898 5.58686 61.9701 5.90638 61.8103 6.24587C61.6506 6.58536 61.5308 6.94483 61.4708 7.32426C61.4109 7.70369 61.371 8.12306 61.351 8.5624C61.3311 9.00174 61.3311 9.48102 61.3311 10.0002C61.3311 10.5195 61.3311 10.9788 61.351 11.4381C61.371 11.8774 61.4109 12.2968 61.4708 12.6762C61.5308 13.0557 61.6506 13.4151 61.8103 13.7546C61.9701 14.0941 62.2097 14.4136 62.4893 14.7132C62.9087 15.1325 63.368 15.4521 63.9072 15.6717C64.4264 15.8914 65.0255 16.0112 65.7045 16.0112C66.3835 16.0112 66.9626 15.8914 67.5018 15.6717C68.021 15.4521 68.5003 15.1325 68.8997 14.7132C69.1993 14.4136 69.4189 14.0941 69.5987 13.7546C69.7584 13.4151 69.8782 13.0557 69.9381 12.6762C69.998 12.2968 70.058 11.8774 70.058 11.4381C70.0779 10.9788 70.0779 10.5195 70.0779 10.0002ZM67.7814 10.0002C67.7814 10.5594 67.7814 11.0387 67.7614 11.4181C67.7414 11.7975 67.7215 12.0971 67.6616 12.3367C67.6216 12.5764 67.5617 12.7761 67.4818 12.9159C67.4019 13.0756 67.3221 13.2154 67.2022 13.3352C67.0425 13.5349 66.8228 13.6747 66.5832 13.7946C66.3236 13.9144 66.044 13.9543 65.7245 13.9743C65.4049 13.9743 65.1254 13.9144 64.8658 13.7946C64.6061 13.6747 64.4064 13.5349 64.2267 13.3352C64.1069 13.2154 64.027 13.0756 63.9471 12.9159C63.8673 12.7561 63.8073 12.5764 63.7674 12.3367C63.7275 12.0971 63.6875 11.7975 63.6875 11.4181C63.6675 11.0387 63.6676 10.5794 63.6676 10.0002C63.6676 9.44108 63.6675 8.9618 63.6875 8.58237C63.7075 8.20294 63.7275 7.90339 63.7674 7.66375C63.8073 7.42411 63.8673 7.22441 63.9471 7.08461C64.027 6.92485 64.1069 6.78507 64.2267 6.66525C64.3865 6.46555 64.6061 6.32575 64.8658 6.20593C65.1254 6.08611 65.4049 6.04617 65.7245 6.0262C66.044 6.0262 66.3236 6.08611 66.5832 6.20593C66.8228 6.32575 67.0425 6.46555 67.2022 6.66525C67.3221 6.78507 67.4019 6.92485 67.4818 7.08461C67.5617 7.24438 67.6216 7.42411 67.6616 7.66375C67.7015 7.90339 67.7414 8.20294 67.7614 8.58237C67.7614 8.9618 67.7814 9.44108 67.7814 10.0002Z" fill="white"/>
<path d="M88.4903 4.28906C88.4903 4.16924 88.3904 4.08936 88.2906 4.08936H86.3934C86.2736 4.08936 86.1937 4.18921 86.1937 4.28906V11.3385L81.5407 4.14927C81.5008 4.10933 81.4808 4.08936 81.4209 4.08936H79.6435C79.5437 4.08936 79.4438 4.18921 79.4438 4.28906C79.4438 8.10333 79.4438 11.9176 79.4438 15.7119C79.4438 15.8317 79.5437 15.9116 79.6435 15.9116H81.5407C81.6605 15.9116 81.7404 15.8118 81.7404 15.7119V8.64253L86.3934 15.8517C86.4334 15.8916 86.4533 15.9116 86.5132 15.9116H88.2906C88.4104 15.9116 88.4903 15.8118 88.4903 15.7119V4.28906Z" fill="white"/>
<path d="M75.7096 4.28906C75.7096 4.16924 75.6098 4.08936 75.5099 4.08936H73.6128C73.493 4.08936 73.4131 4.18921 73.4131 4.28906V15.7119C73.4131 15.8317 73.5129 15.9116 73.6128 15.9116H75.5099C75.6298 15.9116 75.7096 15.8118 75.7096 15.7119V4.28906Z" fill="white"/>
<path d="M52.9236 10.0002C52.9236 9.44108 52.9237 8.9618 52.9436 8.58237C52.9636 8.20294 52.9836 7.90339 53.0235 7.66375C53.2032 6.64528 53.9821 6.04617 54.9806 6.04617C55.6396 6.04617 56.2187 6.28581 56.5981 6.84497C56.7579 7.08462 56.8777 7.3642 56.9576 7.68372C56.9576 7.72366 56.9776 7.74363 57.0175 7.74363H59.2542C59.2941 7.74363 59.2941 7.72366 59.2941 7.68372C59.0545 6.30578 58.3156 5.04767 56.9975 4.4286C56.3984 4.14902 55.6995 3.98926 54.9406 3.98926C53.6825 3.98926 52.6041 4.4286 51.7454 5.28731C51.2462 5.78656 50.9266 6.38566 50.7869 7.06465C50.6471 7.72366 50.5872 8.70219 50.5872 10.0002C50.5872 11.2983 50.6471 12.2768 50.7869 12.9358C50.9266 13.6148 51.2661 14.2139 51.7454 14.7132C52.6041 15.5719 53.6825 16.0112 54.9406 16.0112C55.6995 16.0112 56.3785 15.8714 56.9975 15.5719C58.2956 14.9528 59.0545 13.7147 59.2941 12.3168C59.2941 12.2768 59.2941 12.2569 59.2542 12.2569H57.0175C56.9776 12.2569 56.9576 12.2768 56.9576 12.3168C56.8777 12.6363 56.7579 12.9159 56.5981 13.1555C56.2187 13.6947 55.6396 13.9343 54.9806 13.9543C53.9821 13.9543 53.2032 13.3552 53.0235 12.3367C52.9836 12.0971 52.9436 11.7975 52.9436 11.4181C52.9237 11.0387 52.9236 10.5594 52.9236 10.0002Z" fill="white"/>
<path d="M29.2392 4.289C29.2392 4.16918 29.1393 4.0893 29.0395 4.0893H27.1423C27.0225 4.0893 26.9426 4.18915 26.9426 4.289V15.7119C26.9426 15.8317 27.0425 15.9116 27.1423 15.9116H29.0395C29.1593 15.9116 29.2392 15.8117 29.2392 15.7119V12.3569L30.7769 10.5197L33.9122 15.8517C33.9321 15.8916 33.9721 15.9116 34.032 15.9116H36.3485C36.4484 15.9116 36.4683 15.8517 36.4284 15.7518L32.3146 8.78226L36.0889 4.24907C36.1688 4.14921 36.1289 4.06934 36.009 4.06934H33.4728C33.4329 4.06934 33.4129 4.06934 33.393 4.10928L29.2392 9.08181V4.289Z" fill="white"/>
<path d="M43.1184 13.9546C42.04 13.9546 41.0815 12.9561 41.0815 11.7778V4.28906C41.0815 4.16924 40.9816 4.08936 40.8818 4.08936H38.9846C38.8648 4.08936 38.7849 4.18921 38.7849 4.28906V11.7579C38.7849 14.3739 40.742 16.0314 43.1384 16.0314C45.5348 16.0314 47.4919 14.3739 47.4919 11.7579V4.28906C47.4919 4.16924 47.392 4.08936 47.2922 4.08936H45.395C45.2752 4.08936 45.1953 4.18921 45.1953 4.28906V11.7778C45.1554 12.9561 44.1768 13.9546 43.1184 13.9546Z" fill="white"/>
<path d="M7.77134 10L13.6825 15.9111L17.4169 12.1767C18.0759 11.5177 19.1543 11.5177 19.8133 12.1767C20.4723 12.8357 20.4723 13.9141 19.8133 14.5731L14.8807 19.5057C14.2217 20.1648 13.1433 20.1648 12.4843 19.5057L5.39491 12.3964V16.6301C5.39491 17.5487 4.63605 18.3275 3.69745 18.3275C2.75886 18.3275 2 17.5686 2 16.6301V3.40989C2 2.47129 2.75886 1.71243 3.69745 1.71243C4.63605 1.71243 5.39491 2.47129 5.39491 3.40989V7.60359L12.5042 0.494259C13.1633 -0.164753 14.2416 -0.164753 14.9006 0.494259L19.8333 5.42686C20.4923 6.08587 20.4923 7.16426 19.8333 7.82327C19.1742 8.48228 18.0959 8.48228 17.4368 7.82327L13.7024 4.08887L7.77134 10ZM13.7024 8.30255C12.7639 8.30255 12.005 9.06141 12.005 10C12.005 10.9386 12.7639 11.6975 13.7024 11.6975C14.641 11.6975 15.3999 10.9386 15.3999 10C15.3799 9.06141 14.6211 8.30255 13.7024 8.30255Z" fill="white"/>
</g>
<defs>
<clipPath id="clip0_31685_17229">
<rect width="88" height="20" fill="white" transform="translate(0.875)"/>
</clipPath>
</defs>
</svg>
