<svg width="89" height="20" viewBox="0 0 89 20" fill="none" xmlns="http://www.w3.org/2000/svg">
<path d="M69.4578 10.0002C69.4578 9.48102 69.4578 9.00174 69.4378 8.5624C69.4179 8.12306 69.3779 7.70369 69.318 7.32426C69.2581 6.94483 69.1383 6.58536 68.9785 6.24587C68.8188 5.90638 68.5791 5.58686 68.2796 5.28731C67.8602 4.86794 67.4009 4.54842 66.8817 4.32875C66.3625 4.10908 65.7634 3.98926 65.0844 3.98926C64.4054 3.98926 63.8063 4.10908 63.2871 4.32875C62.7679 4.54842 62.2886 4.86794 61.8692 5.28731C61.5696 5.58686 61.35 5.90638 61.1902 6.24587C61.0305 6.58536 60.9106 6.94483 60.8507 7.32426C60.7908 7.70369 60.7509 8.12306 60.7309 8.5624C60.7109 9.00174 60.7109 9.48102 60.7109 10.0002C60.7109 10.5195 60.7109 10.9788 60.7309 11.4381C60.7509 11.8774 60.7908 12.2968 60.8507 12.6762C60.9106 13.0557 61.0305 13.4151 61.1902 13.7546C61.35 14.0941 61.5896 14.4136 61.8692 14.7132C62.2886 15.1325 62.7479 15.4521 63.2871 15.6717C63.8063 15.8914 64.4054 16.0112 65.0844 16.0112C65.7634 16.0112 66.3425 15.8914 66.8817 15.6717C67.4009 15.4521 67.8802 15.1325 68.2796 14.7132C68.5791 14.4136 68.7988 14.0941 68.9785 13.7546C69.1383 13.4151 69.2581 13.0557 69.318 12.6762C69.3779 12.2968 69.4378 11.8774 69.4378 11.4381C69.4578 10.9788 69.4578 10.5195 69.4578 10.0002ZM67.1613 10.0002C67.1613 10.5594 67.1613 11.0387 67.1413 11.4181C67.1213 11.7975 67.1014 12.0971 67.0414 12.3367C67.0015 12.5764 66.9416 12.7761 66.8617 12.9159C66.7818 13.0756 66.7019 13.2154 66.5821 13.3352C66.4224 13.5349 66.2027 13.6747 65.9631 13.7946C65.7034 13.9144 65.4239 13.9543 65.1043 13.9743C64.7848 13.9743 64.5052 13.9144 64.2456 13.7946C63.986 13.6747 63.7863 13.5349 63.6066 13.3352C63.4868 13.2154 63.4069 13.0756 63.327 12.9159C63.2471 12.7561 63.1872 12.5764 63.1473 12.3367C63.1073 12.0971 63.0674 11.7975 63.0674 11.4181C63.0474 11.0387 63.0474 10.5794 63.0474 10.0002C63.0474 9.44108 63.0474 8.9618 63.0674 8.58237C63.0874 8.20294 63.1073 7.90339 63.1473 7.66375C63.1872 7.42411 63.2471 7.22441 63.327 7.08461C63.4069 6.92485 63.4868 6.78507 63.6066 6.66525C63.7664 6.46555 63.986 6.32575 64.2456 6.20593C64.5052 6.08611 64.7848 6.04617 65.1043 6.0262C65.4239 6.0262 65.7034 6.08611 65.9631 6.20593C66.2027 6.32575 66.4224 6.46555 66.5821 6.66525C66.7019 6.78507 66.7818 6.92485 66.8617 7.08461C66.9416 7.24438 67.0015 7.42411 67.0414 7.66375C67.0814 7.90339 67.1213 8.20294 67.1413 8.58237C67.1413 8.9618 67.1613 9.44108 67.1613 10.0002Z" fill="#28CD96"/>
<path d="M87.8702 4.28906C87.8702 4.16924 87.7703 4.08936 87.6705 4.08936H85.7733C85.6535 4.08936 85.5736 4.18921 85.5736 4.28906V11.3385L80.9206 4.14927C80.8806 4.10933 80.8607 4.08936 80.8008 4.08936H79.0234C78.9236 4.08936 78.8237 4.18921 78.8237 4.28906C78.8237 8.10333 78.8237 11.9176 78.8237 15.7119C78.8237 15.8317 78.9236 15.9116 79.0234 15.9116H80.9206C81.0404 15.9116 81.1203 15.8118 81.1203 15.7119V8.64253L85.7733 15.8517C85.8132 15.8916 85.8332 15.9116 85.8931 15.9116H87.6705C87.7903 15.9116 87.8702 15.8118 87.8702 15.7119V4.28906Z" fill="#28CD96"/>
<path d="M75.0895 4.28906C75.0895 4.16924 74.9897 4.08936 74.8898 4.08936H72.9927C72.8728 4.08936 72.793 4.18921 72.793 4.28906V15.7119C72.793 15.8317 72.8928 15.9116 72.9927 15.9116H74.8898C75.0096 15.9116 75.0895 15.8118 75.0895 15.7119V4.28906Z" fill="#28CD96"/>
<path d="M52.3035 10.0002C52.3035 9.44108 52.3035 8.9618 52.3235 8.58237C52.3435 8.20294 52.3634 7.90339 52.4034 7.66375C52.5831 6.64528 53.3619 6.04617 54.3605 6.04617C55.0195 6.04617 55.5986 6.28581 55.978 6.84497C56.1378 7.08462 56.2576 7.3642 56.3375 7.68372C56.3375 7.72366 56.3575 7.74363 56.3974 7.74363H58.634C58.674 7.74363 58.674 7.72366 58.674 7.68372C58.4343 6.30578 57.6954 5.04767 56.3774 4.4286C55.7783 4.14902 55.0794 3.98926 54.3205 3.98926C53.0624 3.98926 51.984 4.4286 51.1253 5.28731C50.626 5.78656 50.3065 6.38566 50.1667 7.06465C50.027 7.72366 49.967 8.70219 49.967 10.0002C49.967 11.2983 50.027 12.2768 50.1667 12.9358C50.3065 13.6148 50.646 14.2139 51.1253 14.7132C51.984 15.5719 53.0624 16.0112 54.3205 16.0112C55.0794 16.0112 55.7583 15.8714 56.3774 15.5719C57.6755 14.9528 58.4343 13.7147 58.674 12.3168C58.674 12.2768 58.674 12.2569 58.634 12.2569H56.3974C56.3575 12.2569 56.3375 12.2768 56.3375 12.3168C56.2576 12.6363 56.1378 12.9159 55.978 13.1555C55.5986 13.6947 55.0195 13.9343 54.3605 13.9543C53.3619 13.9543 52.5831 13.3552 52.4034 12.3367C52.3634 12.0971 52.3235 11.7975 52.3235 11.4181C52.3035 11.0387 52.3035 10.5594 52.3035 10.0002Z" fill="#28CD96"/>
<path d="M28.6191 4.289C28.6191 4.16918 28.5192 4.0893 28.4194 4.0893H26.5222C26.4024 4.0893 26.3225 4.18915 26.3225 4.289V15.7119C26.3225 15.8317 26.4224 15.9116 26.5222 15.9116H28.4194C28.5392 15.9116 28.6191 15.8117 28.6191 15.7119V12.3569L30.1568 10.5197L33.2921 15.8517C33.312 15.8916 33.352 15.9116 33.4119 15.9116H35.7284C35.8283 15.9116 35.8482 15.8517 35.8083 15.7518L31.6945 8.78226L35.4688 4.24907C35.5487 4.14921 35.5087 4.06934 35.3889 4.06934H32.8527C32.8128 4.06934 32.7928 4.06934 32.7728 4.10928L28.6191 9.08181V4.289Z" fill="#28CD96"/>
<path d="M42.4983 13.9546C41.4199 13.9546 40.4614 12.9561 40.4614 11.7778V4.28906C40.4614 4.16924 40.3615 4.08936 40.2616 4.08936H38.3645C38.2447 4.08936 38.1648 4.18921 38.1648 4.28906V11.7579C38.1648 14.3739 40.1219 16.0314 42.5183 16.0314C44.9147 16.0314 46.8717 14.3739 46.8717 11.7579V4.28906C46.8717 4.16924 46.7719 4.08936 46.672 4.08936H44.7749C44.6551 4.08936 44.5752 4.18921 44.5752 4.28906V11.7778C44.5352 12.9561 43.5567 13.9546 42.4983 13.9546Z" fill="#28CD96"/>
<path d="M7.15123 10L13.0624 15.9111L16.7968 12.1767C17.4558 11.5177 18.5342 11.5177 19.1932 12.1767C19.8522 12.8357 19.8522 13.9141 19.1932 14.5731L14.2606 19.5057C13.6015 20.1648 12.5232 20.1648 11.8642 19.5057L4.77479 12.3964V16.6301C4.77479 17.5487 4.01593 18.3275 3.07734 18.3275C2.13874 18.3275 1.37988 17.5686 1.37988 16.6301V3.40989C1.37988 2.47129 2.13874 1.71243 3.07734 1.71243C4.01593 1.71243 4.77479 2.47129 4.77479 3.40989V7.60359L11.8841 0.494259C12.5431 -0.164753 13.6215 -0.164753 14.2805 0.494259L19.2131 5.42686C19.8721 6.08587 19.8721 7.16426 19.2131 7.82327C18.5541 8.48228 17.4757 8.48228 16.8167 7.82327L13.0823 4.08887L7.15123 10ZM13.0823 8.30255C12.1437 8.30255 11.3849 9.06141 11.3849 10C11.3849 10.9386 12.1437 11.6975 13.0823 11.6975C14.0209 11.6975 14.7798 10.9386 14.7798 10C14.7598 9.06141 14.001 8.30255 13.0823 8.30255Z" fill="#28CD96"/>
</svg>
