<svg width="56" height="20" viewBox="0 0 56 20" fill="none" xmlns="http://www.w3.org/2000/svg">
<g clip-path="url(#clip0_31685_16816)">
<path d="M39.4214 14.4551V0H42.2059V14.4551H39.4214Z" fill="#F7A60F"/>
<path d="M6.96942 18.7491H1V4.29395H6.72938C9.51389 4.29395 11.1364 5.87748 11.1364 8.35449C11.1364 9.95787 10.0943 10.994 9.37312 11.339C10.234 11.7449 11.336 12.6583 11.336 14.5879C11.336 17.2872 9.51389 18.7491 6.96942 18.7491ZM6.50898 6.81188H3.78449V10.1414H6.50898C7.69067 10.1414 8.35187 9.47134 8.35187 8.4761C8.35187 7.48196 7.69067 6.81188 6.50898 6.81188ZM6.68901 12.6793H3.78449V16.2322H6.68901C7.95141 16.2322 8.55151 15.4206 8.55151 14.4453C8.55151 13.4711 7.95029 12.6793 6.68901 12.6793Z" fill="#15192A"/>
<path d="M19.8289 12.8208V18.7491H17.064V12.8208L12.7771 4.29395H15.8016L18.4661 10.1204L21.0902 4.29395H24.1148L19.8289 12.8208Z" fill="#15192A"/>
<path d="M32.009 18.7491H26.0396V4.29395H31.769C34.5534 4.29395 36.1759 5.87748 36.1759 8.35449C36.1759 9.95787 35.1339 10.994 34.4127 11.339C35.2736 11.7449 36.3756 12.6583 36.3756 14.5879C36.3756 17.2872 34.5534 18.7491 32.009 18.7491ZM31.5486 6.81188H28.824V10.1414H31.5486C32.7302 10.1414 33.3914 9.47134 33.3914 8.4761C33.3914 7.48196 32.7302 6.81188 31.5486 6.81188ZM31.7286 12.6793H28.824V16.2322H31.7286C32.991 16.2322 33.5911 15.4206 33.5911 14.4453C33.5911 13.4711 32.991 12.6793 31.7286 12.6793Z" fill="#15192A"/>
<path d="M51.18 6.81187V18.7502H48.3956V6.81187H44.6694V4.29395H54.9062V6.81187H51.18Z" fill="#15192A"/>
</g>
<defs>
<clipPath id="clip0_31685_16816">
<rect width="55" height="20" fill="white" transform="translate(0.875)"/>
</clipPath>
</defs>
</svg>
