<svg width="104" height="104" viewBox="0 0 104 104" fill="none" xmlns="http://www.w3.org/2000/svg">
<g clip-path="url(#clip0_31911_4731)">
<path d="M94.226 82.7414C84.7852 79.3512 69.3973 77.147 52 77.147C34.6027 77.147 19.2148 79.3512 9.77398 82.7414H0V90.5735C0 97.9917 23.2839 104 52 104C80.7161 104 104 97.9917 104 90.5735V82.7414H94.226Z" fill="#013840"/>
<path d="M52 96.1678C80.7188 96.1678 104 90.1566 104 82.7413C104 75.326 80.7188 69.3147 52 69.3147C23.2812 69.3147 0 75.326 0 82.7413C0 90.1566 23.2812 96.1678 52 96.1678Z" fill="#04606E"/>
<path d="M51.4642 84.0281C71.0041 84.0281 86.8444 80.6818 86.8444 76.554C86.8444 72.4261 71.0041 69.0798 51.4642 69.0798C31.9242 69.0798 16.084 72.4261 16.084 76.554C16.084 80.6818 31.9242 84.0281 51.4642 84.0281Z" fill="#7C88DD"/>
<path d="M51.4655 0C31.9175 0 16.0752 3.34545 16.0752 7.47413V76.5538C16.0752 80.6825 31.9175 84.028 51.4554 84.028C70.9932 84.028 86.8356 80.6825 86.8356 76.5538V7.47413C86.8356 3.34545 70.9932 0 51.4554 0H51.4655Z" fill="url(#paint0_linear_31911_4731)"/>
<path d="M51.4655 0C31.9175 0 16.0752 3.34545 16.0752 7.47413V76.5538C16.0752 80.6825 31.9175 84.028 51.4554 84.028C70.9932 84.028 86.8356 80.6825 86.8356 76.5538V7.47413C86.8356 3.34545 70.9932 0 51.4554 0H51.4655Z" fill="url(#paint1_linear_31911_4731)"/>
<path d="M35.0497 40.7962V37.7282C35.0497 36.6535 35.2577 35.6308 35.6737 34.6602C36.0897 33.6895 36.6617 32.8402 37.3897 32.1122C38.1177 31.4188 38.9671 30.8642 39.9377 30.4482C40.9084 30.0322 41.9484 29.8242 43.0577 29.8242C44.3404 29.8242 45.5017 30.0842 46.5417 30.6042C47.6164 31.1242 48.5004 31.8522 49.1937 32.7882C49.5404 33.2735 49.8177 33.7242 50.0257 34.1402C50.2684 34.5215 50.4591 34.9548 50.5977 35.4402C50.8404 36.3068 50.9617 37.5375 50.9617 39.1322C50.9617 40.0335 50.9444 40.7962 50.9097 41.4202C50.9097 42.0095 50.8751 42.5295 50.8057 42.9802C50.7364 43.4308 50.6497 43.8295 50.5457 44.1762C50.4417 44.4882 50.3031 44.7828 50.1297 45.0602L46.5417 51.1962C46.2991 51.6122 46.0911 52.0455 45.9177 52.4962C45.7444 52.9122 45.6577 53.3628 45.6577 53.8482V58.0082H40.3537V53.1722C40.3537 52.4095 40.4751 51.6815 40.7177 50.9882C40.9604 50.2948 41.2724 49.6188 41.6537 48.9602L44.9817 43.5522C45.2591 43.1015 45.4324 42.6162 45.5017 42.0962C45.6057 41.5762 45.6577 41.0562 45.6577 40.5362V37.7802C45.6577 37.0522 45.3977 36.4282 44.8777 35.9082C44.3924 35.3882 43.7857 35.1282 43.0577 35.1282C42.4337 35.1282 41.8271 35.3535 41.2377 35.8042C40.6484 36.2548 40.3537 36.9135 40.3537 37.7802V40.7962H35.0497ZM40.3537 67.1602V61.8562H45.6577V67.1602H40.3537ZM57.5198 38.3002C57.8665 38.3002 58.1612 38.1788 58.4038 37.9362C58.6812 37.6588 58.8198 37.3295 58.8198 36.9482V34.2962C58.8198 33.9148 58.6812 33.6028 58.4038 33.3602C58.1612 33.0828 57.8665 32.9442 57.5198 32.9442C57.1732 32.9442 56.8612 33.0828 56.5838 33.3602C56.3412 33.6028 56.2198 33.9148 56.2198 34.2962V36.9482C56.2198 37.3295 56.3412 37.6588 56.5838 37.9362C56.8612 38.1788 57.1732 38.3002 57.5198 38.3002ZM57.5198 41.4202C56.1678 41.4202 55.0932 41.0562 54.2958 40.3282C53.4985 39.6002 53.0998 38.6468 53.0998 37.4682V34.0882C53.0998 32.7708 53.4985 31.7308 54.2958 30.9682C55.0932 30.2055 56.1678 29.8242 57.5198 29.8242C58.8718 29.8242 59.9465 30.2055 60.7438 30.9682C61.5412 31.7308 61.9398 32.7708 61.9398 34.0882V37.4682C61.9398 38.6468 61.5412 39.6002 60.7438 40.3282C59.9465 41.0562 58.8718 41.4202 57.5198 41.4202ZM64.7478 63.0002C64.7478 63.3815 64.8692 63.7108 65.1118 63.9882C65.3892 64.2308 65.7012 64.3522 66.0478 64.3522C66.3945 64.3522 66.6892 64.2308 66.9318 63.9882C67.2092 63.7108 67.3478 63.3815 67.3478 63.0002V60.3482C67.3478 59.9668 67.2092 59.6548 66.9318 59.4122C66.6892 59.1348 66.3945 58.9962 66.0478 58.9962C65.7012 58.9962 65.3892 59.1348 65.1118 59.4122C64.8692 59.6548 64.7478 59.9668 64.7478 60.3482V63.0002ZM66.0478 67.4722C64.6958 67.4722 63.6212 67.1082 62.8238 66.3802C62.0265 65.6522 61.6278 64.6988 61.6278 63.5202V60.1402C61.6278 58.8228 62.0265 57.7828 62.8238 57.0202C63.6212 56.2575 64.6958 55.8762 66.0478 55.8762C67.3998 55.8762 68.4745 56.2575 69.2718 57.0202C70.0692 57.7828 70.4678 58.8228 70.4678 60.1402V63.5202C70.4678 64.6988 70.0692 65.6522 69.2718 66.3802C68.4745 67.1082 67.3998 67.4722 66.0478 67.4722ZM53.7238 67.1602L66.4118 30.1362H69.8438L57.1558 67.1602H53.7238Z" fill="white"/>
</g>
<defs>
<linearGradient id="paint0_linear_31911_4731" x1="51.4655" y1="-2.52867" x2="51.4655" y2="82.6517" gradientUnits="userSpaceOnUse">
<stop stop-color="#515FF4" stop-opacity="0"/>
<stop offset="0.5" stop-color="#636AFF" stop-opacity="0.5"/>
<stop offset="1" stop-color="#515FF4" stop-opacity="0.7"/>
</linearGradient>
<linearGradient id="paint1_linear_31911_4731" x1="51.4655" y1="-2.52867" x2="51.4655" y2="82.6517" gradientUnits="userSpaceOnUse">
<stop stop-color="#636AFF" stop-opacity="0"/>
<stop offset="1" stop-color="#636AFF" stop-opacity="0.5"/>
</linearGradient>
<clipPath id="clip0_31911_4731">
<rect width="104" height="104" fill="white"/>
</clipPath>
</defs>
</svg>
