<?xml version="1.0" standalone="no"?><!DOCTYPE svg PUBLIC "-//W3C//DTD SVG 1.1//EN" "http://www.w3.org/Graphics/SVG/1.1/DTD/svg11.dtd"><svg t="1747730862095" class="icon" viewBox="0 0 1024 1024" version="1.1" xmlns="http://www.w3.org/2000/svg" p-id="9410" xmlns:xlink="http://www.w3.org/1999/xlink" width="200" height="200"><path d="M494.08 96a19.626667 19.626667 0 0 1 16.213333 8.96 20.48 20.48 0 0 1 0 19.2 384 384 0 0 0-42.666666 179.626667A374.613333 374.613333 0 0 0 836.693333 682.666667h8.533334a16.64 16.64 0 0 1 16.213333 8.96 19.626667 19.626667 0 0 1 0 18.773333 406.613333 406.613333 0 0 1-358.4 218.453333A412.16 412.16 0 0 1 96 512a414.293333 414.293333 0 0 1 398.08-416z m213.333333 276.906667a12.373333 12.373333 0 0 1 11.946667 11.946666v23.893334h23.893333a11.52 11.52 0 0 1 11.946667 11.946666 11.946667 11.946667 0 0 1-11.946667 11.946667h-23.893333v23.893333a11.946667 11.946667 0 0 1-11.946667 11.946667 11.52 11.52 0 0 1-11.946666-11.946667v-23.893333h-25.6a12.373333 12.373333 0 0 1-11.946667-11.946667 11.946667 11.946667 0 0 1 11.946667-11.946666h24.32V384a11.946667 11.946667 0 0 1 11.946666-11.093333z m157.866667-210.346667a15.786667 15.786667 0 0 1 15.786667 15.786667v32h32.426666a16.213333 16.213333 0 0 1 15.786667 16.213333 15.786667 15.786667 0 0 1-15.786667 15.786667h-32.426666v32a15.786667 15.786667 0 1 1-31.573334 0v-32h-32.426666a15.786667 15.786667 0 0 1-15.786667-15.786667 16.213333 16.213333 0 0 1 15.786667-16.213333h32.426666v-32a15.786667 15.786667 0 0 1 14.506667-15.786667z" fill="#ffffff" p-id="9411"></path></svg>